<mxfile host="drawio-plugin" modified="2022-09-22T03:44:39.050Z" agent="5.0 (Macintosh; Intel Mac OS X 10_15_7) AppleWebKit/537.36 (KHTML, like Gecko) Chrome/98.0.4758.102 Safari/537.36" etag="85RXlaLcwH2aY93iKy5z" compressed="false" version="15.5.4" type="embed" pages="2"><diagram id="h3fFSbfOfdy5YC7lufw7" name="第 1 页"><mxGraphModel dx="1594" dy="1557" grid="0" gridSize="10" guides="1" tooltips="1" connect="1" arrows="1" fold="1" page="0" pageScale="1" pageWidth="1654" pageHeight="1169" math="0" shadow="0"><root><mxCell id="0"/><mxCell id="1" parent="0"/><mxCell id="3" value="" style="edgeStyle=orthogonalEdgeStyle;rounded=0;orthogonalLoop=1;jettySize=auto;html=1;" parent="1" source="65" target="116" edge="1"><mxGeometry relative="1" as="geometry"/></mxCell><mxCell id="4" value="" style="edgeStyle=orthogonalEdgeStyle;rounded=0;orthogonalLoop=1;jettySize=auto;html=1;" parent="1" source="99" target="86" edge="1"><mxGeometry relative="1" as="geometry"/></mxCell><object label="《%shapeType%》&#10;%className%&#10;%classDesc%" placeholders="1" shapeType="AGGREGATION" className="ChannelOrder" classDesc="带看单" id="5"><mxCell style="swimlane;fontStyle=7;align=center;verticalAlign=top;childLayout=stackLayout;horizontal=1;startSize=55;horizontalStack=0;resizeParent=1;resizeParentMax=0;resizeLast=0;collapsible=1;marginBottom=0;fixDash=1;container=1;enumerate=0;treeMoving=1;swimlaneBody=1;fillOpacity=100;strokeOpacity=100;overflow=visible;rounded=1;swimlaneLine=1;sketch=0;shadow=0;arcSize=12;fillColor=#fff2cc;strokeColor=#d6b656;strokeWidth=1;fillStyle=auto;swimlaneFillColor=none;metaEdit=1;labelPadding=0;cloneable=1;separatorColor=none;swimlaneHead=1;noLabel=0;direction=east;portConstraint=none;portConstraintRotation=0;rotation=0;connectable=1;snapToPoint=0;perimeter=rectanglePerimeter;dropTarget=1;expand=1;part=1;backgroundOutline=1;movableLabel=1;autosize=1;fixedWidth=0;resizable=1;resizeWidth=0;resizeHeight=0;rotatable=1;treeFolding=0;pointerEvents=1;moveCells=0;comic=0;enumerateValue=123;allowArrows=0;glass=0;fontFamily=Helvetica;fontSize=13;fontColor=default;perimeterSpacing=0;" parent="1" vertex="1"><mxGeometry x="247" y="278" width="490" height="423" as="geometry"><mxRectangle x="70" y="410" width="250" height="50" as="alternateBounds"/></mxGeometry></mxCell></object><object label="%fieldModify% %fieldName%: %fieldType%    #%fieldDesc%" placeholders="1" shapeType="FIELD" fieldName="clueId" fieldType="String" fieldModify="-" fieldDesc="线索ID" id="6"><mxCell style="text;strokeColor=none;fillColor=none;align=left;verticalAlign=top;spacingLeft=4;spacingRight=4;overflow=hidden;rotatable=0;points=[];portConstraint=none;metaEdit=1;cloneable=1;rotation=0;connectable=1;container=0;dropTarget=1;imageAspect=1;absoluteArcSize=0;portConstraintRotation=0;snapToPoint=0;fixDash=0;pointerEvents=0;enumerate=0;resizeHeight=1;resizeWidth=1;autosize=1;part=1;movable=1;rounded=0;fontFamily=Helvetica;fontSize=13;fontColor=default;" parent="5" vertex="1"><mxGeometry y="55" width="490" height="30" as="geometry"/></mxCell></object><object label="%fieldModify% %fieldName%: %fieldType%    #%fieldDesc%" placeholders="1" shapeType="FIELD" fieldName="peerNumber" fieldType="Integer" fieldModify="-" fieldDesc="同行人数(确认到访后反补)" id="7"><mxCell style="text;strokeColor=none;fillColor=none;align=left;verticalAlign=top;spacingLeft=4;spacingRight=4;overflow=hidden;rotatable=0;points=[];portConstraint=none;metaEdit=1;cloneable=1;rotation=0;connectable=1;container=0;dropTarget=1;imageAspect=1;absoluteArcSize=0;portConstraintRotation=0;snapToPoint=0;fixDash=0;pointerEvents=0;enumerate=0;resizeHeight=1;resizeWidth=1;autosize=1;part=1;movable=1;rounded=0;fontFamily=Helvetica;fontSize=13;fontColor=default;" parent="5" vertex="1"><mxGeometry y="85" width="490" height="30" as="geometry"/></mxCell></object><object label="%fieldModify% %fieldName%: %fieldType%    #%fieldDesc%" placeholders="1" shapeType="FIELD" fieldName="signedList" fieldType="List&lt;SignatureInformation&gt;" fieldModify="-" fieldDesc="已签名信息列表" id="8"><mxCell style="text;strokeColor=none;fillColor=none;align=left;verticalAlign=top;spacingLeft=4;spacingRight=4;overflow=hidden;rotatable=0;points=[];portConstraint=none;metaEdit=1;cloneable=1;rotation=0;connectable=1;container=0;dropTarget=1;imageAspect=1;absoluteArcSize=0;portConstraintRotation=0;snapToPoint=0;fixDash=0;pointerEvents=0;enumerate=0;resizeHeight=1;resizeWidth=1;autosize=1;part=1;movable=1;rounded=0;fontFamily=Helvetica;fontSize=13;fontColor=default;" parent="5" vertex="1"><mxGeometry y="115" width="490" height="30" as="geometry"/></mxCell></object><object label="%fieldModify% %fieldName%: %fieldType%    #%fieldDesc%" placeholders="1" shapeType="FIELD" fieldName="channelTapeStatus" fieldType="Integer" fieldModify="-" fieldDesc="带看单状态：0.无效1有效" id="9"><mxCell style="text;strokeColor=none;fillColor=none;align=left;verticalAlign=top;spacingLeft=4;spacingRight=4;overflow=hidden;rotatable=0;points=[];portConstraint=none;metaEdit=1;cloneable=1;rotation=0;connectable=1;container=0;dropTarget=1;imageAspect=1;absoluteArcSize=0;portConstraintRotation=0;snapToPoint=0;fixDash=0;pointerEvents=0;enumerate=0;resizeHeight=1;resizeWidth=1;autosize=1;part=1;movable=1;rounded=0;fontFamily=Helvetica;fontSize=13;fontColor=default;" parent="5" vertex="1"><mxGeometry y="145" width="490" height="30" as="geometry"/></mxCell></object><object label="%fieldModify% %fieldName%: %fieldType%    #%fieldDesc%" placeholders="1" shapeType="FIELD" fieldName="signatureStatus" fieldType="String" fieldModify="-" fieldDesc="签名状态(签名节点的状态)" id="10"><mxCell style="text;strokeColor=none;fillColor=none;align=left;verticalAlign=top;spacingLeft=4;spacingRight=4;overflow=hidden;rotatable=0;points=[];portConstraint=none;metaEdit=1;cloneable=1;rotation=0;connectable=1;container=0;dropTarget=1;imageAspect=1;absoluteArcSize=0;portConstraintRotation=0;snapToPoint=0;fixDash=0;pointerEvents=0;enumerate=0;resizeHeight=1;resizeWidth=1;autosize=1;part=1;movable=1;rounded=0;fontFamily=Helvetica;fontSize=13;fontColor=default;" parent="5" vertex="1"><mxGeometry y="175" width="490" height="30" as="geometry"/></mxCell></object><object label="%fieldModify% %fieldName%: %fieldType%    #%fieldDesc%" placeholders="1" shapeType="FIELD" fieldName="processStatus" fieldType="Integer" fieldModify="-" fieldDesc="流程状态：1.未开始2.进行中3.已审核" id="11"><mxCell style="text;strokeColor=none;fillColor=none;align=left;verticalAlign=top;spacingLeft=4;spacingRight=4;overflow=hidden;rotatable=0;points=[];portConstraint=none;metaEdit=1;cloneable=1;rotation=0;connectable=1;container=0;dropTarget=1;imageAspect=1;absoluteArcSize=0;portConstraintRotation=0;snapToPoint=0;fixDash=0;pointerEvents=0;enumerate=0;resizeHeight=1;resizeWidth=1;autosize=1;part=1;movable=1;rounded=0;fontFamily=Helvetica;fontSize=13;fontColor=default;" parent="5" vertex="1"><mxGeometry y="205" width="490" height="30" as="geometry"/></mxCell></object><object label="%fieldModify% %fieldName%: %fieldType%    #%fieldDesc%" placeholders="1" shapeType="FIELD" fieldName="teamId" fieldType="String" fieldModify="-" fieldDesc="团队ID" id="12"><mxCell style="text;strokeColor=none;fillColor=none;align=left;verticalAlign=top;spacingLeft=4;spacingRight=4;overflow=hidden;rotatable=0;points=[];portConstraint=none;metaEdit=1;cloneable=1;rotation=0;connectable=1;container=0;dropTarget=1;imageAspect=1;absoluteArcSize=0;portConstraintRotation=0;snapToPoint=0;fixDash=0;pointerEvents=0;enumerate=0;resizeHeight=1;resizeWidth=1;autosize=1;part=1;movable=1;rounded=0;fontFamily=Helvetica;fontSize=13;fontColor=default;" parent="5" vertex="1"><mxGeometry y="235" width="490" height="30" as="geometry"/></mxCell></object><object label="%fieldModify% %fieldName%: %fieldType%    #%fieldDesc%" placeholders="1" shapeType="FIELD" fieldName="counselorUserId" fieldType="String" fieldModify="-" fieldDesc="置业顾问ID" id="13"><mxCell style="text;strokeColor=none;fillColor=none;align=left;verticalAlign=top;spacingLeft=4;spacingRight=4;overflow=hidden;rotatable=0;points=[];portConstraint=none;metaEdit=1;cloneable=1;rotation=0;connectable=1;container=0;dropTarget=1;imageAspect=1;absoluteArcSize=0;portConstraintRotation=0;snapToPoint=0;fixDash=0;pointerEvents=0;enumerate=0;resizeHeight=1;resizeWidth=1;autosize=1;part=1;movable=1;rounded=0;fontFamily=Helvetica;fontSize=13;fontColor=default;" parent="5" vertex="1"><mxGeometry y="265" width="490" height="30" as="geometry"/></mxCell></object><object label="%fieldModify% %fieldName%: %fieldType%    #%fieldDesc%" placeholders="1" shapeType="FIELD" fieldName="counselorUserName" fieldType="String" fieldModify="-" fieldDesc="置业顾问名称" id="14"><mxCell style="text;strokeColor=none;fillColor=none;align=left;verticalAlign=top;spacingLeft=4;spacingRight=4;overflow=hidden;rotatable=0;points=[];portConstraint=none;metaEdit=1;cloneable=1;rotation=0;connectable=1;container=0;dropTarget=1;imageAspect=1;absoluteArcSize=0;portConstraintRotation=0;snapToPoint=0;fixDash=0;pointerEvents=0;enumerate=0;resizeHeight=1;resizeWidth=1;autosize=1;part=1;movable=1;rounded=0;fontFamily=Helvetica;fontSize=13;fontColor=default;" parent="5" vertex="1"><mxGeometry y="295" width="490" height="30" as="geometry"/></mxCell></object><object label="%fieldModify% %fieldName%: %fieldType%    #%fieldDesc%" placeholders="1" shapeType="FIELD" fieldName="note" fieldType="String" fieldModify="-" fieldDesc="备注" id="15"><mxCell style="text;strokeColor=none;fillColor=none;align=left;verticalAlign=top;spacingLeft=4;spacingRight=4;overflow=hidden;rotatable=0;points=[];portConstraint=none;metaEdit=1;cloneable=1;rotation=0;connectable=1;container=0;dropTarget=1;imageAspect=1;absoluteArcSize=0;portConstraintRotation=0;snapToPoint=0;fixDash=0;pointerEvents=0;enumerate=0;resizeHeight=1;resizeWidth=1;autosize=1;part=1;movable=1;rounded=0;fontFamily=Helvetica;fontSize=13;fontColor=default;" parent="5" vertex="1"><mxGeometry y="325" width="490" height="30" as="geometry"/></mxCell></object><mxCell id="16" value="" style="line;strokeWidth=1;fillColor=none;align=left;verticalAlign=middle;spacingTop=-1;spacingLeft=3;spacingRight=3;rotatable=0;labelPosition=right;points=[];portConstraint=eastwest;cloneable=1;rounded=0;part=1;fontFamily=Helvetica;fontSize=13;fontColor=default;" parent="5" vertex="1"><mxGeometry y="355" width="490" height="8" as="geometry"/></mxCell><object label="%methodModify% %methodName%(%methodAttr%): %methodReturn%    #%methodDesc%" shapeType="METHOD" placeholders="1" methodReturn="Boolean" methodName="signatureInformationConfirm" methodModify="+" methodDesc="确认签名" methodAttr="" id="17"><mxCell style="text;strokeColor=none;fillColor=none;align=left;verticalAlign=top;spacingLeft=4;spacingRight=4;overflow=hidden;rotatable=0;points=[[0,0.5],[1,0.5]];portConstraint=eastwest;metaEdit=1;cloneable=1;rounded=0;part=1;fontFamily=Helvetica;fontSize=13;fontColor=default;" parent="5" vertex="1"><mxGeometry y="363" width="490" height="30" as="geometry"/></mxCell></object><object label="%methodModify% %methodName%(%methodAttr%): %methodReturn%    #%methodDesc%" shapeType="METHOD" placeholders="1" methodReturn="void" methodName="counselorUserAppoint" methodModify="+" methodDesc="指定置业顾问" methodAttr="" id="18"><mxCell style="text;strokeColor=none;fillColor=none;align=left;verticalAlign=top;spacingLeft=4;spacingRight=4;overflow=hidden;rotatable=0;points=[[0,0.5],[1,0.5]];portConstraint=eastwest;metaEdit=1;cloneable=1;rounded=0;part=1;fontFamily=Helvetica;fontSize=13;fontColor=default;" parent="5" vertex="1"><mxGeometry y="393" width="490" height="30" as="geometry"/></mxCell></object><mxCell id="19" value="" style="edgeStyle=orthogonalEdgeStyle;rounded=0;orthogonalLoop=1;jettySize=auto;html=1;" parent="1" source="41" target="65" edge="1"><mxGeometry relative="1" as="geometry"><mxPoint x="779.9999999999995" y="-670.0000000000002" as="targetPoint"/></mxGeometry></mxCell><mxCell id="20" value="" style="edgeStyle=orthogonalEdgeStyle;rounded=0;orthogonalLoop=1;jettySize=auto;html=1;" parent="1" source="116" target="99" edge="1"><mxGeometry relative="1" as="geometry"/></mxCell><mxCell id="21" style="edgeStyle=orthogonalEdgeStyle;rounded=0;orthogonalLoop=1;jettySize=auto;html=1;" parent="1" source="86" target="30" edge="1"><mxGeometry relative="1" as="geometry"/></mxCell><mxCell id="22" value="" style="group" parent="1" vertex="1" connectable="0"><mxGeometry x="210" y="-690" width="290" height="840" as="geometry"/></mxCell><object label="%nodeDesc%" placeholders="1" nodeDesc="配置带看单功能" shapeType="NODE" id="23"><mxCell style="rounded=0;whiteSpace=wrap;html=1;shadow=0;glass=0;sketch=0;fillStyle=auto;strokeWidth=1;metaEdit=1;resizable=1;rotatable=0;snapToPoint=0;connectable=1;absoluteArcSize=0;noLabel=0;labelPadding=0;allowArrows=1;recursiveResize=1;expand=1;editable=1;movable=1;deletable=1;fixDash=0;collapsible=0;portConstraintRotation=0;points=[[0,0.5,0,0,0],[1,0.5,0,0,0]];backgroundOutline=0;resizeHeight=1;resizeWidth=1;" parent="22" vertex="1"><mxGeometry x="70" width="135" height="40" as="geometry"/></mxCell></object><mxCell id="24" value="" style="group" parent="22" vertex="1" connectable="0"><mxGeometry y="530" width="255" height="310" as="geometry"/></mxCell><object label="《%shapeType%》&lt;br&gt;%rule%" shapeType="RULE" rule="系统默认不启用该功能" placeholders="1" id="25"><mxCell style="rounded=0;whiteSpace=wrap;html=1;shadow=0;glass=0;labelBackgroundColor=none;labelBorderColor=none;sketch=0;fillStyle=auto;fontSize=12;strokeWidth=1;cloneable=1;metaEdit=1;imageWidth=24;arcSize=21;absoluteArcSize=1;connectable=0;allowArrows=0;rotatable=0;" parent="24" vertex="1"><mxGeometry x="60" y="240" width="140" height="70" as="geometry"/></mxCell></object><object label="《%shapeType%》&lt;br&gt;%rule%" shapeType="RULE" rule="项目是否启用渠道带看单功能需要后台进行设置，该配置为项目级，由项目案场后台人员进行配置" placeholders="1" id="26"><mxCell style="rounded=0;whiteSpace=wrap;html=1;shadow=0;glass=0;labelBackgroundColor=none;labelBorderColor=none;sketch=0;fillStyle=auto;fontSize=12;strokeWidth=1;cloneable=1;metaEdit=1;imageWidth=24;arcSize=21;absoluteArcSize=1;connectable=0;allowArrows=0;rotatable=0;" parent="24" vertex="1"><mxGeometry x="135" width="120" height="100" as="geometry"/></mxCell></object><object label="《%shapeType%》&lt;br&gt;%rule%" shapeType="RULE" rule="启用该功能带看模式下（分销、行销）都会启用" placeholders="1" id="27"><mxCell style="rounded=0;whiteSpace=wrap;html=1;shadow=0;glass=0;labelBackgroundColor=none;labelBorderColor=none;sketch=0;fillStyle=auto;fontSize=12;strokeWidth=1;cloneable=1;metaEdit=1;imageWidth=24;arcSize=21;absoluteArcSize=1;connectable=0;allowArrows=0;rotatable=0;" parent="24" vertex="1"><mxGeometry width="120" height="70" as="geometry"/></mxCell></object><object label="《%shapeType%》&lt;br&gt;%rule%" shapeType="RULE" rule="置业顾问名下存在超过项目设置的未签名数量会锁定控制导致接待台不能分配新的渠道带看客户，后台管理员可以后台设置置业顾问存在N个渠道带看单未签名时，锁定分配，N大于等于1，N为整数，默认为空，系统不限制分配数量。" placeholders="1" id="28"><mxCell style="rounded=0;whiteSpace=wrap;html=1;shadow=0;glass=0;labelBackgroundColor=none;labelBorderColor=none;sketch=0;fillStyle=auto;fontSize=12;strokeWidth=1;cloneable=1;metaEdit=1;imageWidth=24;arcSize=21;absoluteArcSize=1;connectable=0;allowArrows=0;rotatable=0;" parent="24" vertex="1"><mxGeometry x="12.5" y="110" width="235" height="110" as="geometry"/></mxCell></object><mxCell id="29" value="" style="group" parent="1" vertex="1" connectable="0"><mxGeometry x="2550" y="-690" width="140" height="601" as="geometry"/></mxCell><object label="%nodeDesc%" placeholders="1" nodeDesc="归档带看单" shapeType="NODE" id="30"><mxCell style="rounded=0;whiteSpace=wrap;html=1;shadow=0;glass=0;sketch=0;fillStyle=auto;strokeWidth=1;metaEdit=1;resizable=1;rotatable=0;snapToPoint=0;connectable=1;absoluteArcSize=0;noLabel=0;labelPadding=0;allowArrows=1;recursiveResize=1;expand=1;editable=1;movable=1;deletable=1;fixDash=0;collapsible=0;portConstraintRotation=0;points=[[0,0.5,0,0,0],[1,0.5,0,0,0]];backgroundOutline=0;resizeHeight=1;resizeWidth=1;" parent="29" vertex="1"><mxGeometry x="2.5" width="135" height="40" as="geometry"/></mxCell></object><object label="《%shapeType%》&lt;br&gt;%rule%" shapeType="RULE" rule="案场经理签名后,归档完成,不能进行修改和删除" placeholders="1" id="31"><mxCell style="rounded=0;whiteSpace=wrap;html=1;shadow=0;glass=0;labelBackgroundColor=none;labelBorderColor=none;sketch=0;fillStyle=auto;fontSize=12;strokeWidth=1;cloneable=1;metaEdit=1;imageWidth=24;arcSize=21;absoluteArcSize=1;connectable=0;allowArrows=0;rotatable=0;fillColor=#fff2cc;strokeColor=#d6b656;" parent="29" vertex="1"><mxGeometry x="-2.5" y="531" width="140" height="70" as="geometry"/></mxCell></object><object label="%nodeDesc%" placeholders="1" nodeDesc="预设签名" shapeType="NODE" id="41"><mxCell style="rounded=0;whiteSpace=wrap;html=1;shadow=0;glass=0;sketch=0;fillStyle=auto;strokeWidth=1;metaEdit=1;resizable=1;rotatable=0;snapToPoint=0;connectable=1;absoluteArcSize=0;noLabel=0;labelPadding=0;allowArrows=1;recursiveResize=1;expand=1;editable=1;movable=1;deletable=1;fixDash=0;collapsible=0;portConstraintRotation=0;points=[[0,0.5,0,0,0],[1,0.5,0,0,0]];backgroundOutline=0;resizeHeight=1;resizeWidth=1;" parent="1" vertex="1"><mxGeometry x="640" y="-690" width="135" height="40" as="geometry"/></mxCell></object><object label="《%shapeType%》&lt;br&gt;%rule%" shapeType="RULE" rule="新报备和重新报备，线索有效的首次到访需要生成渠道带看单签名（申诉成功、复访和补齐全号不需要生成带看）" placeholders="1" id="57"><mxCell style="rounded=0;whiteSpace=wrap;html=1;shadow=0;glass=0;labelBackgroundColor=none;labelBorderColor=none;sketch=0;fillStyle=auto;fontSize=12;strokeWidth=1;cloneable=1;metaEdit=1;imageWidth=24;arcSize=21;absoluteArcSize=1;connectable=0;allowArrows=0;rotatable=0;fillColor=#ffe6cc;strokeColor=#d79b00;" parent="1" vertex="1"><mxGeometry x="1133.99" y="-164" width="172" height="90" as="geometry"/></mxCell></object><mxCell id="58" style="edgeStyle=orthogonalEdgeStyle;rounded=0;orthogonalLoop=1;jettySize=auto;html=1;" parent="1" source="23" target="41" edge="1"><mxGeometry relative="1" as="geometry"/></mxCell><object label="《%shapeType%》&#10;%className%&#10;%classDesc%" placeholders="1" shapeType="AGGREGATION" className="SignaturePresets" classDesc="预签名" id="59"><mxCell style="swimlane;fontStyle=3;align=center;verticalAlign=top;childLayout=stackLayout;horizontal=1;startSize=55;horizontalStack=0;resizeParent=1;resizeParentMax=0;resizeLast=0;collapsible=1;marginBottom=0;fixDash=1;container=1;enumerate=0;treeMoving=1;swimlaneBody=1;fillOpacity=100;strokeOpacity=100;overflow=visible;rounded=1;swimlaneLine=1;sketch=0;shadow=0;arcSize=12;fillColor=#dae8fc;strokeColor=#6c8ebf;strokeWidth=1;fillStyle=auto;swimlaneFillColor=none;metaEdit=1;labelPadding=0;cloneable=1;separatorColor=none;swimlaneHead=1;noLabel=0;direction=east;portConstraint=none;portConstraintRotation=0;rotation=0;connectable=1;snapToPoint=0;perimeter=rectanglePerimeter;dropTarget=1;expand=1;part=1;backgroundOutline=1;movableLabel=1;autosize=1;fixedWidth=0;resizable=1;resizeWidth=0;resizeHeight=0;rotatable=1;treeFolding=0;pointerEvents=1;moveCells=0;comic=0;enumerateValue=123;allowArrows=0;glass=0;fontFamily=Helvetica;fontSize=13;" parent="1" vertex="1"><mxGeometry x="797" y="279" width="370" height="143" as="geometry"><mxRectangle x="70" y="410" width="250" height="50" as="alternateBounds"/></mxGeometry></mxCell></object><object label="%fieldModify% %fieldName%: %fieldType%    #%fieldDesc%" placeholders="1" shapeType="FIELD" fieldName="imgPath" fieldType="String" fieldModify="-" fieldDesc="图片路径" id="60"><mxCell style="text;strokeColor=none;fillColor=none;align=left;verticalAlign=top;spacingLeft=4;spacingRight=4;overflow=hidden;rotatable=0;points=[];portConstraint=none;metaEdit=1;cloneable=1;rotation=0;connectable=1;container=0;dropTarget=1;imageAspect=1;absoluteArcSize=0;portConstraintRotation=0;snapToPoint=0;fixDash=0;pointerEvents=0;enumerate=0;resizeHeight=1;resizeWidth=1;autosize=1;part=1;movable=1;rounded=0;fontFamily=Helvetica;fontSize=13;fontColor=default;" parent="59" vertex="1"><mxGeometry y="55" width="370" height="20" as="geometry"/></mxCell></object><object label="%fieldModify% %fieldName%: %fieldType%    #%fieldDesc%" placeholders="1" shapeType="FIELD" fieldName="signedId" fieldType="Long" fieldModify="-" fieldDesc="签名人员ID" id="61"><mxCell style="text;strokeColor=none;fillColor=none;align=left;verticalAlign=top;spacingLeft=4;spacingRight=4;overflow=hidden;rotatable=0;points=[];portConstraint=none;metaEdit=1;cloneable=1;rotation=0;connectable=1;container=0;dropTarget=1;imageAspect=1;absoluteArcSize=0;portConstraintRotation=0;snapToPoint=0;fixDash=0;pointerEvents=0;enumerate=0;resizeHeight=1;resizeWidth=1;autosize=1;part=1;movable=1;rounded=0;fontFamily=Helvetica;fontSize=13;fontColor=default;" parent="59" vertex="1"><mxGeometry y="75" width="370" height="20" as="geometry"/></mxCell></object><object label="%fieldModify% %fieldName%: %fieldType%    #%fieldDesc%" placeholders="1" shapeType="FIELD" fieldName="signedName" fieldType="String" fieldModify="-" fieldDesc="签名人员名称" id="62"><mxCell style="text;strokeColor=none;fillColor=none;align=left;verticalAlign=top;spacingLeft=4;spacingRight=4;overflow=hidden;rotatable=0;points=[];portConstraint=none;metaEdit=1;cloneable=1;rotation=0;connectable=1;container=0;dropTarget=1;imageAspect=1;absoluteArcSize=0;portConstraintRotation=0;snapToPoint=0;fixDash=0;pointerEvents=0;enumerate=0;resizeHeight=1;resizeWidth=1;autosize=1;part=1;movable=1;rounded=0;fontFamily=Helvetica;fontSize=13;fontColor=default;" parent="59" vertex="1"><mxGeometry y="95" width="370" height="20" as="geometry"/></mxCell></object><object label="%fieldModify% %fieldName%: %fieldType%    #%fieldDesc%" placeholders="1" shapeType="FIELD" fieldName="roleId" fieldType="String" fieldModify="-" fieldDesc="节点编码(角色\岗位ID)" id="63"><mxCell style="text;strokeColor=none;fillColor=none;align=left;verticalAlign=top;spacingLeft=4;spacingRight=4;overflow=hidden;rotatable=0;points=[];portConstraint=none;metaEdit=1;cloneable=1;rotation=0;connectable=1;container=0;dropTarget=1;imageAspect=1;absoluteArcSize=0;portConstraintRotation=0;snapToPoint=0;fixDash=0;pointerEvents=0;enumerate=0;resizeHeight=1;resizeWidth=1;autosize=1;part=1;movable=1;rounded=0;fontFamily=Helvetica;fontSize=13;fontColor=default;" parent="59" vertex="1"><mxGeometry y="115" width="370" height="20" as="geometry"/></mxCell></object><mxCell id="64" value="" style="line;strokeWidth=1;fillColor=none;align=left;verticalAlign=middle;spacingTop=-1;spacingLeft=3;spacingRight=3;rotatable=0;labelPosition=right;points=[];portConstraint=eastwest;cloneable=1;rounded=0;part=1;fontFamily=Helvetica;fontSize=13;fontColor=default;" parent="59" vertex="1"><mxGeometry y="135" width="370" height="8" as="geometry"/></mxCell><object label="%nodeDesc%" placeholders="1" nodeDesc="生成带看单" shapeType="NODE" id="65"><mxCell style="rounded=0;whiteSpace=wrap;html=1;shadow=0;glass=0;sketch=0;fillStyle=auto;strokeWidth=1;metaEdit=1;resizable=1;rotatable=0;snapToPoint=0;connectable=1;absoluteArcSize=0;noLabel=0;labelPadding=0;allowArrows=1;recursiveResize=1;expand=1;editable=1;movable=1;deletable=1;fixDash=0;collapsible=0;portConstraintRotation=0;points=[[0,0.5,0,0,0],[1,0.5,0,0,0]];backgroundOutline=0;resizeHeight=1;resizeWidth=1;" parent="1" vertex="1"><mxGeometry x="1152.49" y="-690" width="135" height="40" as="geometry"/></mxCell></object><object label="《%shapeType%》&lt;br&gt;%rule%" shapeType="RULE" rule="1、渠道带看单编号：区域名称（中文）+项目名称（中文）+年月日+00000001（根据带看单数量自动增加，项目单独计算，每个项目都是从00000001开始，计数跨年重置，重新计算）&#10;2、渠道推荐人信息：&#10;(1) 驻场模式：推荐人姓名（获取带看人姓名）、联系电话（带看人电话）、报备时间（线索首次报备时间）、渠道平台名称（一级身份+二级身份，例如：分销-某某公司）&#10;(2) 非驻场模式：推荐人姓名（获取经纪人姓名）、联系电话（经纪人电话）、报备时间（线索首次报备时间）、渠道平台名称（一级身份+二级身份，例如：分销-某某公司）&#10;(3) 行销带看模式：推荐人姓名（获取行销报备人姓名）、联系电话（行销报备人电话）、报备时间（线索首次报备时间）、渠道平台名称（一级身份+二级身份，例如：空军-某某团队）&#10;(4) 身份证号码：&#10;①　驻场模式：取报备时填写的带看人身份证号码，如果没有填写则为空，可以手动输入。&#10;②　非驻场模式：取经纪人账号维护的个人资料中的身份证号码，可以点击编辑手动输入。&#10;③　行销带看模式：取报备行销人员账号维护的个人资料的身份证号码，可以点击编辑手动输入。&#10;3、到访客户信息：&#10;(1) 客户姓名：取报备时的客户姓名；&#10;(2) 联系电话：取报备时客户的联系电话；&#10;(3) 客户性别：取报备时客户性别；&#10;(4) 到访时间（线索首次到访时间）、同行人数（确认到访后反补）&#10; &#10;4、客户确认信息：&#10;(1) 客户签名：签名时赋值，以图片形式保存，时间客户签名时获取当前保存时间；&#10;(2) 推荐人签名：报备人员签名，以图片形式保存，时间报备人员签名时获取当前保存的时间；&#10;(3) 判客岗签名：登录接待台判客岗账号的签名，以图片形式保存，时间物业人员签名时获取当前保存的时间。&#10;(4) 置业顾问、驻场负责人、团队经理签名：APP和小程序端，签名的时存储的个人签名图片，时间取签名时获取当前保存的时间。（非驻场模式，驻场负责人签名可为空）&#10;(5) 案场经理签名：APP和PC端，签名的时存储的个人签名图片，时间取签名时获取当前保存的时间。&#10;" placeholders="1" id="66"><mxCell style="rounded=0;whiteSpace=wrap;html=1;shadow=0;glass=0;labelBackgroundColor=none;labelBorderColor=none;sketch=0;fillStyle=auto;fontSize=12;strokeWidth=1;cloneable=1;metaEdit=1;imageWidth=24;arcSize=21;absoluteArcSize=1;connectable=0;allowArrows=0;rotatable=0;align=left;fillColor=#fff2cc;strokeColor=#d6b656;" parent="1" vertex="1"><mxGeometry x="1351" y="258" width="460" height="551" as="geometry"/></mxCell></object><mxCell id="85" value="" style="group" parent="1" vertex="1" connectable="0"><mxGeometry x="2200" y="-690" width="278.75" height="340" as="geometry"/></mxCell><object label="%nodeDesc%" placeholders="1" nodeDesc="更新带看单" shapeType="NODE" id="86"><mxCell style="rounded=0;whiteSpace=wrap;html=1;shadow=0;glass=0;sketch=0;fillStyle=auto;strokeWidth=1;metaEdit=1;resizable=1;rotatable=0;snapToPoint=0;connectable=1;absoluteArcSize=0;noLabel=0;labelPadding=0;allowArrows=1;recursiveResize=1;expand=1;editable=1;movable=1;deletable=1;fixDash=0;collapsible=0;portConstraintRotation=0;points=[[0,0.5,0,0,0],[1,0.5,0,0,0]];backgroundOutline=0;resizeHeight=1;resizeWidth=1;" parent="85" vertex="1"><mxGeometry x="71.87999999999988" width="135" height="40" as="geometry"/></mxCell></object><object label="《%shapeType%》" placeholders="1" shapeType="COMMAND" classPackage="channelOrderUpdate" classDesc="带看单更新" id="191"><mxCell style="swimlane;fontStyle=1;align=center;verticalAlign=top;childLayout=stackLayout;horizontal=1;startSize=28;horizontalStack=0;resizeParent=1;resizeParentMax=0;resizeLast=0;collapsible=1;marginBottom=0;fixDash=1;container=1;enumerate=0;treeMoving=1;swimlaneBody=1;fillOpacity=100;strokeOpacity=100;overflow=visible;rounded=1;swimlaneLine=1;sketch=0;shadow=0;arcSize=9;strokeWidth=1;fillStyle=auto;swimlaneFillColor=none;metaEdit=1;labelPadding=0;cloneable=1;separatorColor=none;swimlaneHead=1;noLabel=0;direction=east;portConstraint=none;portConstraintRotation=0;rotation=0;connectable=0;snapToPoint=0;perimeter=rectanglePerimeter;dropTarget=1;expand=1;part=1;backgroundOutline=1;movableLabel=1;autosize=1;fixedWidth=0;resizable=1;resizeWidth=0;resizeHeight=0;rotatable=1;treeFolding=0;pointerEvents=1;moveCells=0;comic=0;enumerateValue=123;allowArrows=0;fontFamily=Helvetica;fontSize=13;fillColor=#fff2cc;strokeColor=#d6b656;" parent="85" vertex="1"><mxGeometry x="14.38000000000011" y="102" width="250" height="136" as="geometry"><mxRectangle y="28" width="250" height="50" as="alternateBounds"/></mxGeometry></mxCell></object><object label="%fieldModify% %fieldName%: %fieldType%    #%fieldDesc%" placeholders="1" shapeType="FIELD" fieldName="id" fieldType="Long" fieldModify="-" fieldDesc="带看单id" id="199"><mxCell style="text;strokeColor=none;fillColor=none;align=left;verticalAlign=top;spacingLeft=4;spacingRight=4;overflow=hidden;rotatable=0;points=[];portConstraint=none;metaEdit=1;cloneable=1;rotation=0;connectable=1;container=0;dropTarget=1;imageAspect=1;absoluteArcSize=0;portConstraintRotation=0;snapToPoint=0;fixDash=0;pointerEvents=0;enumerate=0;resizeHeight=1;resizeWidth=1;autosize=1;part=1;movable=1;rounded=0;fontFamily=Helvetica;fontSize=13;fontColor=default;" parent="191" vertex="1"><mxGeometry y="28" width="250" height="21" as="geometry"/></mxCell></object><object label="%fieldModify% %fieldName%: %fieldType%    #%fieldDesc%" placeholders="1" shapeType="FIELD" fieldName="peerNumber" fieldType="Integer" fieldModify="-" fieldDesc="同行人数(确认到访后反补)" id="200"><mxCell style="text;strokeColor=none;fillColor=none;align=left;verticalAlign=top;spacingLeft=4;spacingRight=4;overflow=hidden;rotatable=0;points=[];portConstraint=none;metaEdit=1;cloneable=1;rotation=0;connectable=1;container=0;dropTarget=1;imageAspect=1;absoluteArcSize=0;portConstraintRotation=0;snapToPoint=0;fixDash=0;pointerEvents=0;enumerate=0;resizeHeight=1;resizeWidth=1;autosize=1;part=1;movable=1;rounded=0;fontFamily=Helvetica;fontSize=13;fontColor=default;" parent="191" vertex="1"><mxGeometry y="49" width="250" height="30" as="geometry"/></mxCell></object><object label="《%shapeType%》" placeholders="1" shapeType="EVENT" id="196"><mxCell style="swimlane;fontStyle=1;align=center;verticalAlign=top;childLayout=stackLayout;horizontal=1;startSize=28;horizontalStack=0;resizeParent=1;resizeParentMax=0;resizeLast=0;collapsible=1;marginBottom=0;fixDash=1;container=1;enumerate=0;treeMoving=1;swimlaneBody=1;fillOpacity=100;strokeOpacity=100;overflow=visible;rounded=1;swimlaneLine=1;sketch=0;shadow=0;arcSize=8;strokeWidth=1;fillStyle=auto;swimlaneFillColor=none;metaEdit=1;labelPadding=0;cloneable=1;separatorColor=none;swimlaneHead=1;noLabel=0;direction=east;portConstraint=none;portConstraintRotation=0;rotation=0;connectable=0;snapToPoint=0;perimeter=rectanglePerimeter;dropTarget=1;expand=1;part=1;backgroundOutline=1;movableLabel=1;autosize=1;fixedWidth=0;resizable=1;resizeWidth=0;resizeHeight=0;rotatable=1;treeFolding=0;pointerEvents=1;moveCells=0;comic=0;enumerateValue=123;allowArrows=0;fontFamily=Helvetica;fontSize=13;fillColor=#fff2cc;strokeColor=#d6b656;" parent="191" vertex="1"><mxGeometry y="79" width="250" height="57" as="geometry"><mxRectangle y="60" width="250" height="50" as="alternateBounds"/></mxGeometry></mxCell></object><object label="《%shapeType%》&lt;br&gt;%rule%" shapeType="RULE" rule="判断是否已经存在签名， 若存在则更新" placeholders="1" id="96"><mxCell style="rounded=0;whiteSpace=wrap;html=1;shadow=0;glass=0;labelBackgroundColor=none;labelBorderColor=none;sketch=0;fillStyle=auto;fontSize=12;strokeWidth=1;cloneable=1;metaEdit=1;imageWidth=24;arcSize=21;absoluteArcSize=1;connectable=0;allowArrows=0;rotatable=0;fillColor=#dae8fc;strokeColor=#6c8ebf;" parent="1" vertex="1"><mxGeometry x="620" y="-170" width="140" height="70" as="geometry"/></mxCell></object><mxCell id="97" value="" style="group" parent="1" vertex="1" connectable="0"><mxGeometry x="1824.63" y="-690" width="278.75" height="700" as="geometry"/></mxCell><object label="《%shapeType%》&lt;br&gt;%rule%" shapeType="RULE" rule="若是超过了渠道带看单的未签名数量则不能指定" placeholders="1" id="98"><mxCell style="rounded=0;whiteSpace=wrap;html=1;shadow=0;glass=0;labelBackgroundColor=none;labelBorderColor=none;sketch=0;fillStyle=auto;fontSize=12;strokeWidth=1;cloneable=1;metaEdit=1;imageWidth=24;arcSize=21;absoluteArcSize=1;connectable=0;allowArrows=0;rotatable=0;fillColor=#fff2cc;strokeColor=#d6b656;" parent="97" vertex="1"><mxGeometry x="65.36999999999989" y="630" width="140" height="70" as="geometry"/></mxCell></object><object label="%nodeDesc%" placeholders="1" nodeDesc="指定置业顾问" shapeType="NODE" id="99"><mxCell style="rounded=0;whiteSpace=wrap;html=1;shadow=0;glass=0;sketch=0;fillStyle=auto;strokeWidth=1;metaEdit=1;resizable=1;rotatable=0;snapToPoint=0;connectable=1;absoluteArcSize=0;noLabel=0;labelPadding=0;allowArrows=1;recursiveResize=1;expand=1;editable=1;movable=1;deletable=1;fixDash=0;collapsible=0;portConstraintRotation=0;points=[[0,0.5,0,0,0],[1,0.5,0,0,0]];backgroundOutline=0;resizeHeight=1;resizeWidth=1;" parent="97" vertex="1"><mxGeometry x="62.86999999999989" width="135" height="40" as="geometry"/></mxCell></object><object label="《%shapeType%》&lt;br&gt;%rule%" shapeType="RULE" rule="锁定的置业顾问头像会显示未完成签名,不能进行推送" placeholders="1" id="100"><mxCell style="rounded=0;whiteSpace=wrap;html=1;shadow=0;glass=0;labelBackgroundColor=none;labelBorderColor=none;sketch=0;fillStyle=auto;fontSize=12;strokeWidth=1;cloneable=1;metaEdit=1;imageWidth=24;arcSize=21;absoluteArcSize=1;connectable=0;allowArrows=0;rotatable=0;fillColor=#fff2cc;strokeColor=#d6b656;" parent="97" vertex="1"><mxGeometry x="69.37999999999988" y="540" width="140" height="70" as="geometry"/></mxCell></object><object label="《%shapeType%》" placeholders="1" shapeType="COMMAND" classPackage="counselorUserAppoint" classDesc="指定置业顾问" id="183"><mxCell style="swimlane;fontStyle=1;align=center;verticalAlign=top;childLayout=stackLayout;horizontal=1;startSize=28;horizontalStack=0;resizeParent=1;resizeParentMax=0;resizeLast=0;collapsible=1;marginBottom=0;fixDash=1;container=1;enumerate=0;treeMoving=1;swimlaneBody=1;fillOpacity=100;strokeOpacity=100;overflow=visible;rounded=1;swimlaneLine=1;sketch=0;shadow=0;arcSize=9;strokeWidth=1;fillStyle=auto;swimlaneFillColor=none;metaEdit=1;labelPadding=0;cloneable=1;separatorColor=none;swimlaneHead=1;noLabel=0;direction=east;portConstraint=none;portConstraintRotation=0;rotation=0;connectable=0;snapToPoint=0;perimeter=rectanglePerimeter;dropTarget=1;expand=1;part=1;backgroundOutline=1;movableLabel=1;autosize=1;fixedWidth=0;resizable=1;resizeWidth=0;resizeHeight=0;rotatable=1;treeFolding=0;pointerEvents=1;moveCells=0;comic=0;enumerateValue=123;allowArrows=0;fontFamily=Helvetica;fontSize=13;fillColor=#fff2cc;strokeColor=#d6b656;" parent="97" vertex="1"><mxGeometry x="14.379999999999882" y="103" width="250" height="179" as="geometry"><mxRectangle y="28" width="250" height="50" as="alternateBounds"/></mxGeometry></mxCell></object><object label="%fieldModify% %fieldName%: %fieldType%    #%fieldDesc%" placeholders="1" shapeType="FIELD" fieldName="clueId" fieldType="String" fieldModify="-" fieldDesc="线索id" id="187"><mxCell style="text;strokeColor=none;fillColor=none;align=left;verticalAlign=top;spacingLeft=4;spacingRight=4;overflow=hidden;rotatable=0;points=[];portConstraint=none;metaEdit=1;cloneable=1;rotation=0;connectable=1;container=0;dropTarget=1;imageAspect=1;absoluteArcSize=0;portConstraintRotation=0;snapToPoint=0;fixDash=0;pointerEvents=0;enumerate=0;resizeHeight=1;resizeWidth=1;autosize=1;part=1;movable=1;rounded=0;fontFamily=Helvetica;fontSize=13;fontColor=default;" parent="183" vertex="1"><mxGeometry y="28" width="250" height="21" as="geometry"/></mxCell></object><object label="%fieldModify% %fieldName%: %fieldType%    #%fieldDesc%" placeholders="1" shapeType="FIELD" fieldName="counselorUserId" fieldType="String" fieldModify="-" fieldDesc="置业顾问ID" id="190"><mxCell style="text;strokeColor=none;fillColor=none;align=left;verticalAlign=top;spacingLeft=4;spacingRight=4;overflow=hidden;rotatable=0;points=[];portConstraint=none;metaEdit=1;cloneable=1;rotation=0;connectable=1;container=0;dropTarget=1;imageAspect=1;absoluteArcSize=0;portConstraintRotation=0;snapToPoint=0;fixDash=0;pointerEvents=0;enumerate=0;resizeHeight=1;resizeWidth=1;autosize=1;part=1;movable=1;rounded=0;fontFamily=Helvetica;fontSize=13;fontColor=default;" parent="183" vertex="1"><mxGeometry y="49" width="250" height="21" as="geometry"/></mxCell></object><object label="%fieldModify% %fieldName%: %fieldType%    #%fieldDesc%" placeholders="1" shapeType="FIELD" fieldName="counselorUserName" fieldType="String" fieldModify="-" fieldDesc="置业顾问名称" id="189"><mxCell style="text;strokeColor=none;fillColor=none;align=left;verticalAlign=top;spacingLeft=4;spacingRight=4;overflow=hidden;rotatable=0;points=[];portConstraint=none;metaEdit=1;cloneable=1;rotation=0;connectable=1;container=0;dropTarget=1;imageAspect=1;absoluteArcSize=0;portConstraintRotation=0;snapToPoint=0;fixDash=0;pointerEvents=0;enumerate=0;resizeHeight=1;resizeWidth=1;autosize=1;part=1;movable=1;rounded=0;fontFamily=Helvetica;fontSize=13;fontColor=default;" parent="183" vertex="1"><mxGeometry y="70" width="250" height="20" as="geometry"/></mxCell></object><object label="%fieldModify% %fieldName%: %fieldType%    #%fieldDesc%" placeholders="1" shapeType="FIELD" fieldName="projectId" fieldType="String" fieldModify="-" fieldDesc="项目id" id="188"><mxCell style="text;strokeColor=none;fillColor=none;align=left;verticalAlign=top;spacingLeft=4;spacingRight=4;overflow=hidden;rotatable=0;points=[];portConstraint=none;metaEdit=1;cloneable=1;rotation=0;connectable=1;container=0;dropTarget=1;imageAspect=1;absoluteArcSize=0;portConstraintRotation=0;snapToPoint=0;fixDash=0;pointerEvents=0;enumerate=0;resizeHeight=1;resizeWidth=1;autosize=1;part=1;movable=1;rounded=0;fontFamily=Helvetica;fontSize=13;fontColor=default;" parent="183" vertex="1"><mxGeometry y="90" width="250" height="32" as="geometry"/></mxCell></object><object label="《%shapeType%》" placeholders="1" shapeType="EVENT" id="185"><mxCell style="swimlane;fontStyle=1;align=center;verticalAlign=top;childLayout=stackLayout;horizontal=1;startSize=28;horizontalStack=0;resizeParent=1;resizeParentMax=0;resizeLast=0;collapsible=1;marginBottom=0;fixDash=1;container=1;enumerate=0;treeMoving=1;swimlaneBody=1;fillOpacity=100;strokeOpacity=100;overflow=visible;rounded=1;swimlaneLine=1;sketch=0;shadow=0;arcSize=8;strokeWidth=1;fillStyle=auto;swimlaneFillColor=none;metaEdit=1;labelPadding=0;cloneable=1;separatorColor=none;swimlaneHead=1;noLabel=0;direction=east;portConstraint=none;portConstraintRotation=0;rotation=0;connectable=0;snapToPoint=0;perimeter=rectanglePerimeter;dropTarget=1;expand=1;part=1;backgroundOutline=1;movableLabel=1;autosize=1;fixedWidth=0;resizable=1;resizeWidth=0;resizeHeight=0;rotatable=1;treeFolding=0;pointerEvents=1;moveCells=0;comic=0;enumerateValue=123;allowArrows=0;fontFamily=Helvetica;fontSize=13;fillColor=#fff2cc;strokeColor=#d6b656;" parent="183" vertex="1"><mxGeometry y="122" width="250" height="57" as="geometry"><mxRectangle y="60" width="250" height="50" as="alternateBounds"/></mxGeometry></mxCell></object><mxCell id="114" value="" style="group" parent="1" vertex="1" connectable="0"><mxGeometry x="1490" y="-690" width="280" height="820" as="geometry"/></mxCell><object label="《%shapeType%》&lt;br&gt;%rule%" shapeType="RULE" rule="案场经理签名后渠道带看单自动归档" placeholders="1" id="115"><mxCell style="rounded=0;whiteSpace=wrap;html=1;shadow=0;glass=0;labelBackgroundColor=none;labelBorderColor=none;sketch=0;fillStyle=auto;fontSize=12;strokeWidth=1;cloneable=1;metaEdit=1;imageWidth=24;arcSize=21;absoluteArcSize=1;connectable=0;allowArrows=0;rotatable=0;fillColor=#fff2cc;strokeColor=#d6b656;" parent="114" vertex="1"><mxGeometry x="70" y="750" width="140" height="70" as="geometry"/></mxCell></object><object label="%nodeDesc%" placeholders="1" nodeDesc="确认签名信息" shapeType="NODE" id="116"><mxCell style="rounded=0;whiteSpace=wrap;html=1;shadow=0;glass=0;sketch=0;fillStyle=auto;strokeWidth=1;metaEdit=1;resizable=1;rotatable=0;snapToPoint=0;connectable=1;absoluteArcSize=0;noLabel=0;labelPadding=0;allowArrows=1;recursiveResize=1;expand=1;editable=1;movable=1;deletable=1;fixDash=0;collapsible=0;portConstraintRotation=0;points=[[0,0.5,0,0,0],[1,0.5,0,0,0]];backgroundOutline=0;resizeHeight=1;resizeWidth=1;" parent="114" vertex="1"><mxGeometry x="72.5" width="135" height="40" as="geometry"/></mxCell></object><object label="《%shapeType%》&lt;br&gt;%rule%" shapeType="RULE" rule="重新签名，客户和报备人签名后，只要判客岗还没有签名，皆可重新修改签名，当判客岗签名保存后就不允许修改客户和报备人的签名" placeholders="1" id="117"><mxCell style="rounded=0;whiteSpace=wrap;html=1;shadow=0;glass=0;labelBackgroundColor=none;labelBorderColor=none;sketch=0;fillStyle=auto;fontSize=12;strokeWidth=1;cloneable=1;metaEdit=1;imageWidth=24;arcSize=21;absoluteArcSize=1;connectable=0;allowArrows=0;rotatable=0;fillColor=#fff2cc;strokeColor=#d6b656;" parent="114" vertex="1"><mxGeometry x="45" y="530" width="190" height="100" as="geometry"/></mxCell></object><object label="《%shapeType%》&lt;br&gt;%rule%" shapeType="RULE" rule="置业顾问完成签名后会自动解锁" placeholders="1" id="118"><mxCell style="rounded=0;whiteSpace=wrap;html=1;shadow=0;glass=0;labelBackgroundColor=none;labelBorderColor=none;sketch=0;fillStyle=auto;fontSize=12;strokeWidth=1;cloneable=1;metaEdit=1;imageWidth=24;arcSize=21;absoluteArcSize=1;connectable=0;allowArrows=0;rotatable=0;fillColor=#fff2cc;strokeColor=#d6b656;" parent="114" vertex="1"><mxGeometry x="70" y="655" width="140" height="70" as="geometry"/></mxCell></object><object label="《%shapeType%》&#10;%className%&#10;%classDesc%" placeholders="1" shapeType="ENTITY" className="SignatureInformation" classDesc="签名信息" id="142"><mxCell style="swimlane;fontStyle=3;align=center;verticalAlign=top;childLayout=stackLayout;horizontal=1;startSize=55;horizontalStack=0;resizeParent=1;resizeParentMax=0;resizeLast=0;collapsible=1;marginBottom=0;fixDash=1;container=1;enumerate=0;treeMoving=1;swimlaneBody=1;fillOpacity=100;strokeOpacity=100;overflow=visible;rounded=0;swimlaneLine=1;sketch=0;shadow=0;arcSize=12;fillColor=#fff2cc;strokeColor=#d6b656;strokeWidth=1;fillStyle=auto;swimlaneFillColor=none;metaEdit=1;labelPadding=0;cloneable=1;separatorColor=none;swimlaneHead=1;noLabel=0;direction=east;portConstraint=none;portConstraintRotation=0;rotation=0;connectable=1;snapToPoint=0;perimeter=rectanglePerimeter;dropTarget=1;expand=1;part=1;backgroundOutline=1;movableLabel=1;autosize=1;fixedWidth=0;resizable=1;resizeWidth=0;resizeHeight=0;rotatable=1;treeFolding=0;pointerEvents=1;moveCells=0;comic=0;enumerateValue=123;allowArrows=0;glass=0;fontFamily=Helvetica;fontSize=13;" parent="1" vertex="1"><mxGeometry x="798" y="456" width="370" height="203" as="geometry"><mxRectangle x="70" y="410" width="250" height="50" as="alternateBounds"/></mxGeometry></mxCell></object><object label="%fieldModify% %fieldName%: %fieldType%    #%fieldDesc%" placeholders="1" shapeType="FIELD" fieldName="signedId" fieldType="Long" fieldModify="-" fieldDesc="签名人员ID" id="157"><mxCell style="text;strokeColor=none;fillColor=none;align=left;verticalAlign=top;spacingLeft=4;spacingRight=4;overflow=hidden;rotatable=0;points=[];portConstraint=none;metaEdit=1;cloneable=1;rotation=0;connectable=1;container=0;dropTarget=1;imageAspect=1;absoluteArcSize=0;portConstraintRotation=0;snapToPoint=0;fixDash=0;pointerEvents=0;enumerate=0;resizeHeight=1;resizeWidth=1;autosize=1;part=1;movable=1;rounded=0;fontFamily=Helvetica;fontSize=13;fontColor=default;" parent="142" vertex="1"><mxGeometry y="55" width="370" height="20" as="geometry"/></mxCell></object><object label="%fieldModify% %fieldName%: %fieldType%    #%fieldDesc%" placeholders="1" shapeType="FIELD" fieldName="imgPath" fieldType="String" fieldModify="-" fieldDesc="图片路径" id="163"><mxCell style="text;strokeColor=none;fillColor=none;align=left;verticalAlign=top;spacingLeft=4;spacingRight=4;overflow=hidden;rotatable=0;points=[];portConstraint=none;metaEdit=1;cloneable=1;rotation=0;connectable=1;container=0;dropTarget=1;imageAspect=1;absoluteArcSize=0;portConstraintRotation=0;snapToPoint=0;fixDash=0;pointerEvents=0;enumerate=0;resizeHeight=1;resizeWidth=1;autosize=1;part=1;movable=1;rounded=0;fontFamily=Helvetica;fontSize=13;fontColor=default;" parent="142" vertex="1"><mxGeometry y="75" width="370" height="20" as="geometry"/></mxCell></object><object label="%fieldModify% %fieldName%: %fieldType%    #%fieldDesc%" placeholders="1" shapeType="FIELD" fieldName="signedTime" fieldType="LocalDateTime" fieldModify="-" fieldDesc="签名时间" id="162"><mxCell style="text;strokeColor=none;fillColor=none;align=left;verticalAlign=top;spacingLeft=4;spacingRight=4;overflow=hidden;rotatable=0;points=[];portConstraint=none;metaEdit=1;cloneable=1;rotation=0;connectable=1;container=0;dropTarget=1;imageAspect=1;absoluteArcSize=0;portConstraintRotation=0;snapToPoint=0;fixDash=0;pointerEvents=0;enumerate=0;resizeHeight=1;resizeWidth=1;autosize=1;part=1;movable=1;rounded=0;fontFamily=Helvetica;fontSize=13;fontColor=default;" parent="142" vertex="1"><mxGeometry y="95" width="370" height="20" as="geometry"/></mxCell></object><object label="%fieldModify% %fieldName%: %fieldType%    #%fieldDesc%" placeholders="1" shapeType="FIELD" fieldName="roleId" fieldType="String" fieldModify="-" fieldDesc="节点编码" id="161"><mxCell style="text;strokeColor=none;fillColor=none;align=left;verticalAlign=top;spacingLeft=4;spacingRight=4;overflow=hidden;rotatable=0;points=[];portConstraint=none;metaEdit=1;cloneable=1;rotation=0;connectable=1;container=0;dropTarget=1;imageAspect=1;absoluteArcSize=0;portConstraintRotation=0;snapToPoint=0;fixDash=0;pointerEvents=0;enumerate=0;resizeHeight=1;resizeWidth=1;autosize=1;part=1;movable=1;rounded=0;fontFamily=Helvetica;fontSize=13;fontColor=default;" parent="142" vertex="1"><mxGeometry y="115" width="370" height="20" as="geometry"/></mxCell></object><object label="%fieldModify% %fieldName%: %fieldType%    #%fieldDesc%" placeholders="1" shapeType="FIELD" fieldName="roleName" fieldType="String" fieldModify="-" fieldDesc="节点名称" id="160"><mxCell style="text;strokeColor=none;fillColor=none;align=left;verticalAlign=top;spacingLeft=4;spacingRight=4;overflow=hidden;rotatable=0;points=[];portConstraint=none;metaEdit=1;cloneable=1;rotation=0;connectable=1;container=0;dropTarget=1;imageAspect=1;absoluteArcSize=0;portConstraintRotation=0;snapToPoint=0;fixDash=0;pointerEvents=0;enumerate=0;resizeHeight=1;resizeWidth=1;autosize=1;part=1;movable=1;rounded=0;fontFamily=Helvetica;fontSize=13;fontColor=default;" parent="142" vertex="1"><mxGeometry y="135" width="370" height="20" as="geometry"/></mxCell></object><object label="%fieldModify% %fieldName%: %fieldType%    #%fieldDesc%" placeholders="1" shapeType="FIELD" fieldName="checkState" fieldType="String" fieldModify="-" fieldDesc="签名节点状态：1.未签名2.已签名" id="159"><mxCell style="text;align=left;verticalAlign=top;spacingLeft=4;spacingRight=4;overflow=hidden;rotatable=0;points=[];portConstraint=none;metaEdit=1;cloneable=1;rotation=0;connectable=1;container=0;dropTarget=1;imageAspect=1;absoluteArcSize=0;portConstraintRotation=0;snapToPoint=0;fixDash=0;pointerEvents=0;enumerate=0;resizeHeight=1;resizeWidth=1;autosize=1;part=1;movable=1;rounded=0;fontFamily=Helvetica;fontSize=13;" parent="142" vertex="1"><mxGeometry y="155" width="370" height="20" as="geometry"/></mxCell></object><object label="%fieldModify% %fieldName%: %fieldType%    #%fieldDesc%" placeholders="1" shapeType="FIELD" fieldName="signedName" fieldType="String" fieldModify="-" fieldDesc="签名人员名称" id="158"><mxCell style="text;strokeColor=none;fillColor=none;align=left;verticalAlign=top;spacingLeft=4;spacingRight=4;overflow=hidden;rotatable=0;points=[];portConstraint=none;metaEdit=1;cloneable=1;rotation=0;connectable=1;container=0;dropTarget=1;imageAspect=1;absoluteArcSize=0;portConstraintRotation=0;snapToPoint=0;fixDash=0;pointerEvents=0;enumerate=0;resizeHeight=1;resizeWidth=1;autosize=1;part=1;movable=1;rounded=0;fontFamily=Helvetica;fontSize=13;fontColor=default;" parent="142" vertex="1"><mxGeometry y="175" width="370" height="20" as="geometry"/></mxCell></object><mxCell id="156" value="" style="line;strokeWidth=1;fillColor=none;align=left;verticalAlign=middle;spacingTop=-1;spacingLeft=3;spacingRight=3;rotatable=0;labelPosition=right;points=[];portConstraint=eastwest;cloneable=1;rounded=0;part=1;fontFamily=Helvetica;fontSize=13;fontColor=default;" parent="142" vertex="1"><mxGeometry y="195" width="370" height="8" as="geometry"/></mxCell><object label="《%shapeType%》" placeholders="1" shapeType="COMMAND" classPackage="signaturePresets" classDesc="签名预设" id="164"><mxCell style="swimlane;fontStyle=1;align=center;verticalAlign=top;childLayout=stackLayout;horizontal=1;startSize=28;horizontalStack=0;resizeParent=1;resizeParentMax=0;resizeLast=0;collapsible=1;marginBottom=0;fixDash=1;container=1;enumerate=0;treeMoving=1;swimlaneBody=1;fillOpacity=100;strokeOpacity=100;overflow=visible;rounded=1;swimlaneLine=1;sketch=0;shadow=0;arcSize=9;strokeWidth=1;fillStyle=auto;swimlaneFillColor=none;metaEdit=1;labelPadding=0;cloneable=1;separatorColor=none;swimlaneHead=1;noLabel=0;direction=east;portConstraint=none;portConstraintRotation=0;rotation=0;connectable=0;snapToPoint=0;perimeter=rectanglePerimeter;dropTarget=1;expand=1;part=1;backgroundOutline=1;movableLabel=1;autosize=1;fixedWidth=0;resizable=1;resizeWidth=0;resizeHeight=0;rotatable=1;treeFolding=0;pointerEvents=1;moveCells=0;comic=0;enumerateValue=123;allowArrows=0;fontFamily=Helvetica;fontSize=13;fillColor=#dae8fc;strokeColor=#6c8ebf;" parent="1" vertex="1"><mxGeometry x="582.5" y="-580.5" width="250" height="200" as="geometry"><mxRectangle y="28" width="250" height="50" as="alternateBounds"/></mxGeometry></mxCell></object><object label="%fieldModify% %fieldName%: %fieldType%    #%fieldDesc%" placeholders="1" shapeType="FIELD" fieldName="id" fieldType="Long" fieldModify="-" fieldDesc="主键" id="167"><mxCell style="text;strokeColor=none;fillColor=none;align=left;verticalAlign=top;spacingLeft=4;spacingRight=4;overflow=hidden;rotatable=0;points=[];portConstraint=none;metaEdit=1;cloneable=1;rotation=0;connectable=1;container=0;dropTarget=1;imageAspect=1;absoluteArcSize=0;portConstraintRotation=0;snapToPoint=0;fixDash=0;pointerEvents=0;enumerate=0;resizeHeight=1;resizeWidth=1;autosize=1;part=1;movable=1;rounded=0;fontFamily=Helvetica;fontSize=13;fontColor=default;" parent="164" vertex="1"><mxGeometry y="28" width="250" height="21" as="geometry"/></mxCell></object><object label="%fieldModify% %fieldName%: %fieldType%    #%fieldDesc%" placeholders="1" shapeType="FIELD" fieldName="imgPath" fieldType="String" fieldModify="-" fieldDesc="图片路径" id="168"><mxCell style="text;strokeColor=none;fillColor=none;align=left;verticalAlign=top;spacingLeft=4;spacingRight=4;overflow=hidden;rotatable=0;points=[];portConstraint=none;metaEdit=1;cloneable=1;rotation=0;connectable=1;container=0;dropTarget=1;imageAspect=1;absoluteArcSize=0;portConstraintRotation=0;snapToPoint=0;fixDash=0;pointerEvents=0;enumerate=0;resizeHeight=1;resizeWidth=1;autosize=1;part=1;movable=1;rounded=0;fontFamily=Helvetica;fontSize=13;fontColor=default;" parent="164" vertex="1"><mxGeometry y="49" width="250" height="20" as="geometry"/></mxCell></object><object label="%fieldModify% %fieldName%: %fieldType%    #%fieldDesc%" placeholders="1" shapeType="FIELD" fieldName="signedName" fieldType="String" fieldModify="-" fieldDesc="签名人员名称" id="171"><mxCell style="text;strokeColor=none;fillColor=none;align=left;verticalAlign=top;spacingLeft=4;spacingRight=4;overflow=hidden;rotatable=0;points=[];portConstraint=none;metaEdit=1;cloneable=1;rotation=0;connectable=1;container=0;dropTarget=1;imageAspect=1;absoluteArcSize=0;portConstraintRotation=0;snapToPoint=0;fixDash=0;pointerEvents=0;enumerate=0;resizeHeight=1;resizeWidth=1;autosize=1;part=1;movable=1;rounded=0;fontFamily=Helvetica;fontSize=13;fontColor=default;" parent="164" vertex="1"><mxGeometry y="69" width="250" height="23" as="geometry"/></mxCell></object><object label="%fieldModify% %fieldName%: %fieldType%    #%fieldDesc%" placeholders="1" shapeType="FIELD" fieldName="roleId" fieldType="String" fieldModify="-" fieldDesc="节点编码" id="170"><mxCell style="text;strokeColor=none;fillColor=none;align=left;verticalAlign=top;spacingLeft=4;spacingRight=4;overflow=hidden;rotatable=0;points=[];portConstraint=none;metaEdit=1;cloneable=1;rotation=0;connectable=1;container=0;dropTarget=1;imageAspect=1;absoluteArcSize=0;portConstraintRotation=0;snapToPoint=0;fixDash=0;pointerEvents=0;enumerate=0;resizeHeight=1;resizeWidth=1;autosize=1;part=1;movable=1;rounded=0;fontFamily=Helvetica;fontSize=13;fontColor=default;" parent="164" vertex="1"><mxGeometry y="92" width="250" height="20" as="geometry"/></mxCell></object><object label="%fieldModify% %fieldName%: %fieldType%    #%fieldDesc%" placeholders="1" shapeType="FIELD" fieldName="signedId" fieldType="String" fieldModify="-" fieldDesc="签名人员ID" id="169"><mxCell style="text;strokeColor=none;fillColor=none;align=left;verticalAlign=top;spacingLeft=4;spacingRight=4;overflow=hidden;rotatable=0;points=[];portConstraint=none;metaEdit=1;cloneable=1;rotation=0;connectable=1;container=0;dropTarget=1;imageAspect=1;absoluteArcSize=0;portConstraintRotation=0;snapToPoint=0;fixDash=0;pointerEvents=0;enumerate=0;resizeHeight=1;resizeWidth=1;autosize=1;part=1;movable=1;rounded=0;fontFamily=Helvetica;fontSize=13;fontColor=default;" parent="164" vertex="1"><mxGeometry y="112" width="250" height="30" as="geometry"/></mxCell></object><object label="《%shapeType%》" placeholders="1" shapeType="EVENT" id="166"><mxCell style="swimlane;fontStyle=1;align=center;verticalAlign=top;childLayout=stackLayout;horizontal=1;startSize=28;horizontalStack=0;resizeParent=1;resizeParentMax=0;resizeLast=0;collapsible=1;marginBottom=0;fixDash=1;container=1;enumerate=0;treeMoving=1;swimlaneBody=1;fillOpacity=100;strokeOpacity=100;overflow=visible;rounded=1;swimlaneLine=1;sketch=0;shadow=0;arcSize=8;strokeWidth=1;fillStyle=auto;swimlaneFillColor=none;metaEdit=1;labelPadding=0;cloneable=1;separatorColor=none;swimlaneHead=1;noLabel=0;direction=east;portConstraint=none;portConstraintRotation=0;rotation=0;connectable=0;snapToPoint=0;perimeter=rectanglePerimeter;dropTarget=1;expand=1;part=1;backgroundOutline=1;movableLabel=1;autosize=1;fixedWidth=0;resizable=1;resizeWidth=0;resizeHeight=0;rotatable=1;treeFolding=0;pointerEvents=1;moveCells=0;comic=0;enumerateValue=123;allowArrows=0;fontFamily=Helvetica;fontSize=13;fillColor=#dae8fc;strokeColor=#6c8ebf;" parent="164" vertex="1"><mxGeometry y="142" width="250" height="58" as="geometry"><mxRectangle y="60" width="250" height="50" as="alternateBounds"/></mxGeometry></mxCell></object><object label="《%shapeType%》" placeholders="1" shapeType="COMMAND" classPackage="channelOrderCreate" classDesc="生成带看单" id="172"><mxCell style="swimlane;fontStyle=1;align=center;verticalAlign=top;childLayout=stackLayout;horizontal=1;startSize=28;horizontalStack=0;resizeParent=1;resizeParentMax=0;resizeLast=0;collapsible=1;marginBottom=0;fixDash=1;container=1;enumerate=0;treeMoving=1;swimlaneBody=1;fillOpacity=100;strokeOpacity=100;overflow=visible;rounded=1;swimlaneLine=1;sketch=0;shadow=0;arcSize=9;strokeWidth=1;fillStyle=auto;swimlaneFillColor=none;metaEdit=1;labelPadding=0;cloneable=1;separatorColor=none;swimlaneHead=1;noLabel=0;direction=east;portConstraint=none;portConstraintRotation=0;rotation=0;connectable=0;snapToPoint=0;perimeter=rectanglePerimeter;dropTarget=1;expand=1;part=1;backgroundOutline=1;movableLabel=1;autosize=1;fixedWidth=0;resizable=1;resizeWidth=0;resizeHeight=0;rotatable=1;treeFolding=0;pointerEvents=1;moveCells=0;comic=0;enumerateValue=123;allowArrows=0;fontFamily=Helvetica;fontSize=13;fillColor=#fff2cc;strokeColor=#d6b656;" parent="1" vertex="1"><mxGeometry x="1094.99" y="-585" width="250" height="115" as="geometry"><mxRectangle y="28" width="250" height="50" as="alternateBounds"/></mxGeometry></mxCell></object><object label="%fieldModify% %fieldName%: %fieldType%    #%fieldDesc%" placeholders="1" shapeType="FIELD" fieldName="clueId" fieldType="String" fieldModify="-" fieldDesc="线索ID" id="175"><mxCell style="text;strokeColor=none;fillColor=none;align=left;verticalAlign=top;spacingLeft=4;spacingRight=4;overflow=hidden;rotatable=0;points=[];portConstraint=none;metaEdit=1;cloneable=1;rotation=0;connectable=1;container=0;dropTarget=1;imageAspect=1;absoluteArcSize=0;portConstraintRotation=0;snapToPoint=0;fixDash=0;pointerEvents=0;enumerate=0;resizeHeight=1;resizeWidth=1;autosize=1;part=1;movable=1;rounded=0;fontFamily=Helvetica;fontSize=13;fontColor=default;" parent="172" vertex="1"><mxGeometry y="28" width="250" height="30" as="geometry"/></mxCell></object><object label="《%shapeType%》" placeholders="1" shapeType="EVENT" id="174"><mxCell style="swimlane;fontStyle=1;align=center;verticalAlign=top;childLayout=stackLayout;horizontal=1;startSize=28;horizontalStack=0;resizeParent=1;resizeParentMax=0;resizeLast=0;collapsible=1;marginBottom=0;fixDash=1;container=1;enumerate=0;treeMoving=1;swimlaneBody=1;fillOpacity=100;strokeOpacity=100;overflow=visible;rounded=1;swimlaneLine=1;sketch=0;shadow=0;arcSize=8;strokeWidth=1;fillStyle=auto;swimlaneFillColor=none;metaEdit=1;labelPadding=0;cloneable=1;separatorColor=none;swimlaneHead=1;noLabel=0;direction=east;portConstraint=none;portConstraintRotation=0;rotation=0;connectable=0;snapToPoint=0;perimeter=rectanglePerimeter;dropTarget=1;expand=1;part=1;backgroundOutline=1;movableLabel=1;autosize=1;fixedWidth=0;resizable=1;resizeWidth=0;resizeHeight=0;rotatable=1;treeFolding=0;pointerEvents=1;moveCells=0;comic=0;enumerateValue=123;allowArrows=0;fontFamily=Helvetica;fontSize=13;fillColor=#fff2cc;strokeColor=#d6b656;" parent="172" vertex="1"><mxGeometry y="58" width="250" height="57" as="geometry"><mxRectangle y="60" width="250" height="50" as="alternateBounds"/></mxGeometry></mxCell></object><object label="%fieldModify% %fieldName%: %fieldType%    #%fieldDesc%" placeholders="1" shapeType="FIELD" fieldName="id" fieldType="Long" fieldModify="-" fieldDesc="主键" id="176"><mxCell style="text;strokeColor=none;fillColor=none;align=left;verticalAlign=top;spacingLeft=4;spacingRight=4;overflow=hidden;rotatable=0;points=[];portConstraint=none;metaEdit=1;cloneable=1;rotation=0;connectable=1;container=0;dropTarget=1;imageAspect=1;absoluteArcSize=0;portConstraintRotation=0;snapToPoint=0;fixDash=0;pointerEvents=0;enumerate=0;resizeHeight=1;resizeWidth=1;autosize=1;part=1;movable=1;rounded=0;fontFamily=Helvetica;fontSize=13;fontColor=default;" parent="174" vertex="1"><mxGeometry y="28" width="250" height="29" as="geometry"/></mxCell></object><object label="《%shapeType%》" placeholders="1" shapeType="COMMAND" classPackage="signatureInformationConfirm" classDesc="生成带看单" id="177"><mxCell style="swimlane;fontStyle=1;align=center;verticalAlign=top;childLayout=stackLayout;horizontal=1;startSize=28;horizontalStack=0;resizeParent=1;resizeParentMax=0;resizeLast=0;collapsible=1;marginBottom=0;fixDash=1;container=1;enumerate=0;treeMoving=1;swimlaneBody=1;fillOpacity=100;strokeOpacity=100;overflow=visible;rounded=1;swimlaneLine=1;sketch=0;shadow=0;arcSize=9;strokeWidth=1;fillStyle=auto;swimlaneFillColor=none;metaEdit=1;labelPadding=0;cloneable=1;separatorColor=none;swimlaneHead=1;noLabel=0;direction=east;portConstraint=none;portConstraintRotation=0;rotation=0;connectable=0;snapToPoint=0;perimeter=rectanglePerimeter;dropTarget=1;expand=1;part=1;backgroundOutline=1;movableLabel=1;autosize=1;fixedWidth=0;resizable=1;resizeWidth=0;resizeHeight=0;rotatable=1;treeFolding=0;pointerEvents=1;moveCells=0;comic=0;enumerateValue=123;allowArrows=0;fontFamily=Helvetica;fontSize=13;fillColor=#fff2cc;strokeColor=#d6b656;" parent="1" vertex="1"><mxGeometry x="1505" y="-585" width="250" height="136" as="geometry"><mxRectangle y="28" width="250" height="50" as="alternateBounds"/></mxGeometry></mxCell></object><object label="%fieldModify% %fieldName%: %fieldType%    #%fieldDesc%" placeholders="1" shapeType="FIELD" fieldName="id" fieldType="Long" fieldModify="-" fieldDesc="带看单id" id="181"><mxCell style="text;strokeColor=none;fillColor=none;align=left;verticalAlign=top;spacingLeft=4;spacingRight=4;overflow=hidden;rotatable=0;points=[];portConstraint=none;metaEdit=1;cloneable=1;rotation=0;connectable=1;container=0;dropTarget=1;imageAspect=1;absoluteArcSize=0;portConstraintRotation=0;snapToPoint=0;fixDash=0;pointerEvents=0;enumerate=0;resizeHeight=1;resizeWidth=1;autosize=1;part=1;movable=1;rounded=0;fontFamily=Helvetica;fontSize=13;fontColor=default;" parent="177" vertex="1"><mxGeometry y="28" width="250" height="21" as="geometry"/></mxCell></object><object label="%fieldModify% %fieldName%: %fieldType%    #%fieldDesc%" placeholders="1" shapeType="FIELD" fieldName="signatureInformationList" fieldType="List&lt;SignatureInformation&gt;" fieldModify="-" fieldDesc="签名信息列表" id="182"><mxCell style="text;strokeColor=none;fillColor=none;align=left;verticalAlign=top;spacingLeft=4;spacingRight=4;overflow=hidden;rotatable=0;points=[];portConstraint=none;metaEdit=1;cloneable=1;rotation=0;connectable=1;container=0;dropTarget=1;imageAspect=1;absoluteArcSize=0;portConstraintRotation=0;snapToPoint=0;fixDash=0;pointerEvents=0;enumerate=0;resizeHeight=1;resizeWidth=1;autosize=1;part=1;movable=1;rounded=0;fontFamily=Helvetica;fontSize=13;fontColor=default;" parent="177" vertex="1"><mxGeometry y="49" width="250" height="30" as="geometry"/></mxCell></object><object label="《%shapeType%》" placeholders="1" shapeType="EVENT" id="179"><mxCell style="swimlane;fontStyle=1;align=center;verticalAlign=top;childLayout=stackLayout;horizontal=1;startSize=28;horizontalStack=0;resizeParent=1;resizeParentMax=0;resizeLast=0;collapsible=1;marginBottom=0;fixDash=1;container=1;enumerate=0;treeMoving=1;swimlaneBody=1;fillOpacity=100;strokeOpacity=100;overflow=visible;rounded=1;swimlaneLine=1;sketch=0;shadow=0;arcSize=8;strokeWidth=1;fillStyle=auto;swimlaneFillColor=none;metaEdit=1;labelPadding=0;cloneable=1;separatorColor=none;swimlaneHead=1;noLabel=0;direction=east;portConstraint=none;portConstraintRotation=0;rotation=0;connectable=0;snapToPoint=0;perimeter=rectanglePerimeter;dropTarget=1;expand=1;part=1;backgroundOutline=1;movableLabel=1;autosize=1;fixedWidth=0;resizable=1;resizeWidth=0;resizeHeight=0;rotatable=1;treeFolding=0;pointerEvents=1;moveCells=0;comic=0;enumerateValue=123;allowArrows=0;fontFamily=Helvetica;fontSize=13;fillColor=#fff2cc;strokeColor=#d6b656;" parent="177" vertex="1"><mxGeometry y="79" width="250" height="57" as="geometry"><mxRectangle y="60" width="250" height="50" as="alternateBounds"/></mxGeometry></mxCell></object></root></mxGraphModel></diagram><diagram id="1QzBDAt2imRAQvs9Xkz0" name="第 2 页">&#xa;    <mxGraphModel dx="3429" dy="1162" grid="1" gridSize="10" guides="1" tooltips="1" connect="1" arrows="1" fold="1" page="0" pageScale="1" pageWidth="1654" pageHeight="1169" math="0" shadow="0">&#xa;      <root>&#xa;        <mxCell id="0"/>&#xa;        <mxCell id="1" parent="0"/>&#xa;        <object label="《%shapeType%》&lt;br&gt;%rule%" shapeType="RULE" rule="PC端-客户中心-客户管理-渠道带看单管理，增加渠道带看单管理界面，用于分析和统计带看单数据" placeholders="1" id="HzCiQVSrDcbXGf-cu61E-1">&#xa;          <mxCell style="rounded=0;whiteSpace=wrap;html=1;shadow=0;glass=0;labelBackgroundColor=none;labelBorderColor=none;sketch=0;fillStyle=auto;fontSize=12;strokeWidth=1;cloneable=1;metaEdit=1;imageWidth=24;arcSize=21;absoluteArcSize=1;connectable=0;allowArrows=0;rotatable=0;" parent="1" vertex="1">&#xa;            <mxGeometry x="230" y="410" width="150" height="90" as="geometry"/>&#xa;          </mxCell>&#xa;        </object>&#xa;        <object label="《%shapeType%》&lt;br&gt;%rule%" shapeType="RULE" rule="PC端和移动端时间轴增加带看单日志记录。" placeholders="1" id="HzCiQVSrDcbXGf-cu61E-2">&#xa;          <mxCell style="rounded=0;whiteSpace=wrap;html=1;shadow=0;glass=0;labelBackgroundColor=none;labelBorderColor=none;sketch=0;fillStyle=auto;fontSize=12;strokeWidth=1;cloneable=1;metaEdit=1;imageWidth=24;arcSize=21;absoluteArcSize=1;connectable=0;allowArrows=0;rotatable=0;" parent="1" vertex="1">&#xa;            <mxGeometry x="415" y="410" width="140" height="70" as="geometry"/>&#xa;          </mxCell>&#xa;        </object>&#xa;        <object label="《%shapeType%》&lt;br&gt;%rule%" shapeType="RULE" rule="a) 单份导出：PC端-案场管理-客户详情-渠道带看单，导出带看单，导出文件为PDF。" placeholders="1" id="HzCiQVSrDcbXGf-cu61E-3">&#xa;          <mxCell style="rounded=0;whiteSpace=wrap;html=1;shadow=0;glass=0;labelBackgroundColor=none;labelBorderColor=none;sketch=0;fillStyle=auto;fontSize=12;strokeWidth=1;cloneable=1;metaEdit=1;imageWidth=24;arcSize=21;absoluteArcSize=1;connectable=0;allowArrows=0;rotatable=0;" parent="1" vertex="1">&#xa;            <mxGeometry x="230" y="520" width="140" height="80" as="geometry"/>&#xa;          </mxCell>&#xa;        </object>&#xa;        <object label="《%shapeType%》&lt;br&gt;%rule%" shapeType="RULE" rule="b) 批量导出带看单：PC端-客户中心-客户管理-渠道带看单管理，勾选列表数据，点击“批量导出带看单”，跳转下载中心，进行批量导出任务，执行完成后点击“下载”进行导出的PDF压缩文件的下载。" placeholders="1" id="HzCiQVSrDcbXGf-cu61E-4">&#xa;          <mxCell style="rounded=0;whiteSpace=wrap;html=1;shadow=0;glass=0;labelBackgroundColor=none;labelBorderColor=none;sketch=0;fillStyle=auto;fontSize=12;strokeWidth=1;cloneable=1;metaEdit=1;imageWidth=24;arcSize=21;absoluteArcSize=1;connectable=0;allowArrows=0;rotatable=0;" parent="1" vertex="1">&#xa;            <mxGeometry x="405" y="510" width="240" height="110" as="geometry"/>&#xa;          </mxCell>&#xa;        </object>&#xa;        <object label="《%shapeType%》&lt;br&gt;%rule%" shapeType="RULE" rule="1、APP登录行销模块，检测项目是启用带看单功能且团队为保护带看模式或竞争带看模式下的账号提醒账号设置身份证号，如果已设置身份证号则不提醒" placeholders="1" id="HzCiQVSrDcbXGf-cu61E-5">&#xa;          <mxCell style="rounded=0;whiteSpace=wrap;html=1;shadow=0;glass=0;labelBackgroundColor=none;labelBorderColor=none;sketch=0;fillStyle=auto;fontSize=12;strokeWidth=1;cloneable=1;metaEdit=1;imageWidth=24;arcSize=21;absoluteArcSize=1;connectable=0;allowArrows=0;rotatable=0;fillColor=#ffe6cc;strokeColor=#d79b00;" parent="1" vertex="1">&#xa;            <mxGeometry x="230" y="630" width="200" height="140" as="geometry"/>&#xa;          </mxCell>&#xa;        </object>&#xa;        <object label="《%shapeType%》&#10;%className%&#10;%classDesc%" placeholders="1" shapeType="VALUE_OBJECT" className="VisitEvidenceDistributionFindDTO" classDesc="移动端-带看单-分销查询" id="m9KdmkMDGxjIubplXK2w-1">&#xa;          <mxCell style="swimlane;fontStyle=5;align=center;verticalAlign=top;childLayout=stackLayout;horizontal=1;startSize=55;horizontalStack=0;resizeParent=1;resizeParentMax=0;resizeLast=0;collapsible=1;marginBottom=0;fixDash=1;container=1;enumerate=0;treeMoving=1;swimlaneBody=1;fillOpacity=100;strokeOpacity=100;overflow=visible;rounded=1;swimlaneLine=1;sketch=0;shadow=0;arcSize=6;strokeWidth=1;fillStyle=auto;swimlaneFillColor=default;metaEdit=1;labelPadding=0;cloneable=1;separatorColor=none;swimlaneHead=1;noLabel=0;direction=east;portConstraint=none;portConstraintRotation=0;rotation=0;connectable=1;snapToPoint=0;perimeter=rectanglePerimeter;dropTarget=1;expand=1;part=1;backgroundOutline=1;movableLabel=1;autosize=1;fixedWidth=0;resizable=1;resizeWidth=0;resizeHeight=0;rotatable=1;treeFolding=0;pointerEvents=1;moveCells=0;comic=0;enumerateValue=123;allowArrows=0;glass=0;fontFamily=Helvetica;fontSize=13;" vertex="1" parent="1">&#xa;            <mxGeometry x="820" y="644" width="310" height="163" as="geometry">&#xa;              <mxRectangle x="70" y="410" width="250" height="50" as="alternateBounds"/>&#xa;            </mxGeometry>&#xa;          </mxCell>&#xa;        </object>&#xa;        <object label="%fieldModify% %fieldName%: %fieldType%    #%fieldDesc%" placeholders="1" shapeType="FIELD" fieldName="signerRole" fieldType="String" fieldModify="-" fieldDesc="签名人角色" id="y6w4xnMtLhlreuSDxd0q-1">&#xa;          <mxCell style="text;strokeColor=none;fillColor=none;align=left;verticalAlign=top;spacingLeft=4;spacingRight=4;overflow=hidden;rotatable=0;points=[];portConstraint=none;metaEdit=1;cloneable=1;rotation=0;connectable=1;container=0;dropTarget=1;imageAspect=1;absoluteArcSize=0;portConstraintRotation=0;snapToPoint=0;fixDash=0;pointerEvents=0;enumerate=0;resizeHeight=1;resizeWidth=1;autosize=1;part=1;movable=1;rounded=0;fontFamily=Helvetica;fontSize=13;fontColor=default;" vertex="1" parent="m9KdmkMDGxjIubplXK2w-1">&#xa;            <mxGeometry y="55" width="310" height="20" as="geometry"/>&#xa;          </mxCell>&#xa;        </object>&#xa;        <object label="%fieldModify% %fieldName%: %fieldType%    #%fieldDesc%" placeholders="1" shapeType="FIELD" fieldName="signerId" fieldType="String" fieldModify="-" fieldDesc="签名人ID" id="y6w4xnMtLhlreuSDxd0q-2">&#xa;          <mxCell style="text;strokeColor=none;fillColor=none;align=left;verticalAlign=top;spacingLeft=4;spacingRight=4;overflow=hidden;rotatable=0;points=[];portConstraint=none;metaEdit=1;cloneable=1;rotation=0;connectable=1;container=0;dropTarget=1;imageAspect=1;absoluteArcSize=0;portConstraintRotation=0;snapToPoint=0;fixDash=0;pointerEvents=0;enumerate=0;resizeHeight=1;resizeWidth=1;autosize=1;part=1;movable=1;rounded=0;fontFamily=Helvetica;fontSize=13;fontColor=default;" vertex="1" parent="m9KdmkMDGxjIubplXK2w-1">&#xa;            <mxGeometry y="75" width="310" height="20" as="geometry"/>&#xa;          </mxCell>&#xa;        </object>&#xa;        <object label="%fieldModify% %fieldName%: %fieldType%    #%fieldDesc%" placeholders="1" shapeType="FIELD" fieldName="clientName" fieldType="String" fieldModify="-" fieldDesc="客户姓名" id="o8XRS2fEIfPc32ZcXqOR-1">&#xa;          <mxCell style="text;strokeColor=none;fillColor=none;align=left;verticalAlign=top;spacingLeft=4;spacingRight=4;overflow=hidden;rotatable=0;points=[];portConstraint=none;metaEdit=1;cloneable=1;rotation=0;connectable=1;container=0;dropTarget=1;imageAspect=1;absoluteArcSize=0;portConstraintRotation=0;snapToPoint=0;fixDash=0;pointerEvents=0;enumerate=0;resizeHeight=1;resizeWidth=1;autosize=1;part=1;movable=1;rounded=0;fontFamily=Helvetica;fontSize=13;fontColor=default;" vertex="1" parent="m9KdmkMDGxjIubplXK2w-1">&#xa;            <mxGeometry y="95" width="310" height="20" as="geometry"/>&#xa;          </mxCell>&#xa;        </object>&#xa;        <object label="%fieldModify% %fieldName%: %fieldType%    #%fieldDesc%" placeholders="1" shapeType="FIELD" fieldName="clientPhoneNumber" fieldType="String" fieldModify="-" fieldDesc="客户联系电话" id="o8XRS2fEIfPc32ZcXqOR-2">&#xa;          <mxCell style="text;strokeColor=none;fillColor=none;align=left;verticalAlign=top;spacingLeft=4;spacingRight=4;overflow=hidden;rotatable=0;points=[];portConstraint=none;metaEdit=1;cloneable=1;rotation=0;connectable=1;container=0;dropTarget=1;imageAspect=1;absoluteArcSize=0;portConstraintRotation=0;snapToPoint=0;fixDash=0;pointerEvents=0;enumerate=0;resizeHeight=1;resizeWidth=1;autosize=1;part=1;movable=1;rounded=0;fontFamily=Helvetica;fontSize=13;fontColor=default;" vertex="1" parent="m9KdmkMDGxjIubplXK2w-1">&#xa;            <mxGeometry y="115" width="310" height="20" as="geometry"/>&#xa;          </mxCell>&#xa;        </object>&#xa;        <object label="%fieldModify% %fieldName%: %fieldType%    #%fieldDesc%" placeholders="1" shapeType="FIELD" fieldName="signatureStatus" fieldType="String" fieldModify="-" fieldDesc="签名状态" id="o8XRS2fEIfPc32ZcXqOR-3">&#xa;          <mxCell style="text;strokeColor=none;fillColor=none;align=left;verticalAlign=top;spacingLeft=4;spacingRight=4;overflow=hidden;rotatable=0;points=[];portConstraint=none;metaEdit=1;cloneable=1;rotation=0;connectable=1;container=0;dropTarget=1;imageAspect=1;absoluteArcSize=0;portConstraintRotation=0;snapToPoint=0;fixDash=0;pointerEvents=0;enumerate=0;resizeHeight=1;resizeWidth=1;autosize=1;part=1;movable=1;rounded=0;fontFamily=Helvetica;fontSize=13;fontColor=default;" vertex="1" parent="m9KdmkMDGxjIubplXK2w-1">&#xa;            <mxGeometry y="135" width="310" height="20" as="geometry"/>&#xa;          </mxCell>&#xa;        </object>&#xa;        <mxCell id="m9KdmkMDGxjIubplXK2w-3" value="" style="line;strokeWidth=1;fillColor=none;align=left;verticalAlign=middle;spacingTop=-1;spacingLeft=3;spacingRight=3;rotatable=0;labelPosition=right;points=[];portConstraint=eastwest;cloneable=1;rounded=0;part=1;fontFamily=Helvetica;fontSize=13;fontColor=default;" vertex="1" parent="m9KdmkMDGxjIubplXK2w-1">&#xa;          <mxGeometry y="155" width="310" height="8" as="geometry"/>&#xa;        </mxCell>&#xa;        <object label="《%shapeType%》&#10;%className%&#10;%classDesc%" placeholders="1" shapeType="VALUE_OBJECT" className="VisitEvidenceDistributionFindVO" classDesc="移动端-带看单-分销查询" id="o8XRS2fEIfPc32ZcXqOR-4">&#xa;          <mxCell style="swimlane;fontStyle=5;align=center;verticalAlign=top;childLayout=stackLayout;horizontal=1;startSize=55;horizontalStack=0;resizeParent=1;resizeParentMax=0;resizeLast=0;collapsible=1;marginBottom=0;fixDash=1;container=1;enumerate=0;treeMoving=1;swimlaneBody=1;fillOpacity=100;strokeOpacity=100;overflow=visible;rounded=1;swimlaneLine=1;sketch=0;shadow=0;arcSize=6;strokeWidth=1;fillStyle=auto;swimlaneFillColor=default;metaEdit=1;labelPadding=0;cloneable=1;separatorColor=none;swimlaneHead=1;noLabel=0;direction=east;portConstraint=none;portConstraintRotation=0;rotation=0;connectable=1;snapToPoint=0;perimeter=rectanglePerimeter;dropTarget=1;expand=1;part=1;backgroundOutline=1;movableLabel=1;autosize=1;fixedWidth=0;resizable=1;resizeWidth=0;resizeHeight=0;rotatable=1;treeFolding=0;pointerEvents=1;moveCells=0;comic=0;enumerateValue=123;allowArrows=0;glass=0;fontFamily=Helvetica;fontSize=13;" vertex="1" parent="1">&#xa;            <mxGeometry x="770" y="830" width="420" height="454" as="geometry">&#xa;              <mxRectangle x="70" y="410" width="250" height="50" as="alternateBounds"/>&#xa;            </mxGeometry>&#xa;          </mxCell>&#xa;        </object>&#xa;        <object label="%fieldModify% %fieldName%: %fieldType%    #%fieldDesc%" placeholders="1" shapeType="FIELD" fieldName="id" fieldType="Long" fieldModify="-" fieldDesc="主键" id="kK66NA4HC-JT13vF96wr-1">&#xa;          <mxCell style="text;strokeColor=none;fillColor=none;align=left;verticalAlign=top;spacingLeft=4;spacingRight=4;overflow=hidden;rotatable=0;points=[];portConstraint=none;metaEdit=1;cloneable=1;rotation=0;connectable=1;container=0;dropTarget=1;imageAspect=1;absoluteArcSize=0;portConstraintRotation=0;snapToPoint=0;fixDash=0;pointerEvents=0;enumerate=0;resizeHeight=1;resizeWidth=1;autosize=1;part=1;movable=1;rounded=0;fontFamily=Helvetica;fontSize=13;fontColor=default;" vertex="1" parent="o8XRS2fEIfPc32ZcXqOR-4">&#xa;            <mxGeometry y="55" width="420" height="30" as="geometry"/>&#xa;          </mxCell>&#xa;        </object>&#xa;        <object label="%fieldModify% %fieldName%: %fieldType%    #%fieldDesc%" placeholders="1" shapeType="FIELD" fieldName="visitEvidenceCode" fieldType="String" fieldModify="-" fieldDesc="带看单编号：区域名称（中文）+项目名称（中文）+年月日+00000001（根据带看单数量自动增加，项目单独计算，每个项目都是从00000001开始，计数跨年重置，重新计算）" id="kK66NA4HC-JT13vF96wr-2">&#xa;          <mxCell style="text;strokeColor=none;fillColor=none;align=left;verticalAlign=top;spacingLeft=4;spacingRight=4;overflow=hidden;rotatable=0;points=[];portConstraint=none;metaEdit=1;cloneable=1;rotation=0;connectable=1;container=0;dropTarget=1;imageAspect=1;absoluteArcSize=0;portConstraintRotation=0;snapToPoint=0;fixDash=0;pointerEvents=0;enumerate=0;resizeHeight=1;resizeWidth=1;autosize=1;part=1;movable=1;rounded=0;fontFamily=Helvetica;fontSize=13;fontColor=default;" vertex="1" parent="o8XRS2fEIfPc32ZcXqOR-4">&#xa;            <mxGeometry y="85" width="420" height="31" as="geometry"/>&#xa;          </mxCell>&#xa;        </object>&#xa;        <object label="%fieldModify% %fieldName%: %fieldType%    #%fieldDesc%" placeholders="1" shapeType="FIELD" fieldName="signatureList" fieldType="List&lt;Signature&gt;" fieldModify="-" fieldDesc="签名列表" id="kK66NA4HC-JT13vF96wr-13">&#xa;          <mxCell style="text;strokeColor=none;fillColor=none;align=left;verticalAlign=top;spacingLeft=4;spacingRight=4;overflow=hidden;rotatable=0;points=[];portConstraint=none;metaEdit=1;cloneable=1;rotation=0;connectable=1;container=0;dropTarget=1;imageAspect=1;absoluteArcSize=0;portConstraintRotation=0;snapToPoint=0;fixDash=0;pointerEvents=0;enumerate=0;resizeHeight=1;resizeWidth=1;autosize=1;part=1;movable=1;rounded=0;fontFamily=Helvetica;fontSize=13;fontColor=default;" vertex="1" parent="o8XRS2fEIfPc32ZcXqOR-4">&#xa;            <mxGeometry y="116" width="420" height="30" as="geometry"/>&#xa;          </mxCell>&#xa;        </object>&#xa;        <object label="%fieldModify% %fieldName%: %fieldType%    #%fieldDesc%" placeholders="1" shapeType="FIELD" fieldName="clientName" fieldType="String" fieldModify="-" fieldDesc="客户姓名" id="kK66NA4HC-JT13vF96wr-12">&#xa;          <mxCell style="text;strokeColor=none;fillColor=none;align=left;verticalAlign=top;spacingLeft=4;spacingRight=4;overflow=hidden;rotatable=0;points=[];portConstraint=none;metaEdit=1;cloneable=1;rotation=0;connectable=1;container=0;dropTarget=1;imageAspect=1;absoluteArcSize=0;portConstraintRotation=0;snapToPoint=0;fixDash=0;pointerEvents=0;enumerate=0;resizeHeight=1;resizeWidth=1;autosize=1;part=1;movable=1;rounded=0;fontFamily=Helvetica;fontSize=13;fontColor=default;" vertex="1" parent="o8XRS2fEIfPc32ZcXqOR-4">&#xa;            <mxGeometry y="146" width="420" height="30" as="geometry"/>&#xa;          </mxCell>&#xa;        </object>&#xa;        <object label="%fieldModify% %fieldName%: %fieldType%    #%fieldDesc%" placeholders="1" shapeType="FIELD" fieldName="IDNumber" fieldType="String" fieldModify="-" fieldDesc="身份证号码" id="kK66NA4HC-JT13vF96wr-11">&#xa;          <mxCell style="text;strokeColor=none;fillColor=none;align=left;verticalAlign=top;spacingLeft=4;spacingRight=4;overflow=hidden;rotatable=0;points=[];portConstraint=none;metaEdit=1;cloneable=1;rotation=0;connectable=1;container=0;dropTarget=1;imageAspect=1;absoluteArcSize=0;portConstraintRotation=0;snapToPoint=0;fixDash=0;pointerEvents=0;enumerate=0;resizeHeight=1;resizeWidth=1;autosize=1;part=1;movable=1;rounded=0;fontFamily=Helvetica;fontSize=13;fontColor=default;" vertex="1" parent="o8XRS2fEIfPc32ZcXqOR-4">&#xa;            <mxGeometry y="176" width="420" height="30" as="geometry"/>&#xa;          </mxCell>&#xa;        </object>&#xa;        <object label="%fieldModify% %fieldName%: %fieldType%    #%fieldDesc%" placeholders="1" shapeType="FIELD" fieldName="channelName" fieldType="String" fieldModify="-" fieldDesc="渠道平台名称（一级身份+二级身份，例如：分销-某某公司）" id="kK66NA4HC-JT13vF96wr-10">&#xa;          <mxCell style="text;strokeColor=none;fillColor=none;align=left;verticalAlign=top;spacingLeft=4;spacingRight=4;overflow=hidden;rotatable=0;points=[];portConstraint=none;metaEdit=1;cloneable=1;rotation=0;connectable=1;container=0;dropTarget=1;imageAspect=1;absoluteArcSize=0;portConstraintRotation=0;snapToPoint=0;fixDash=0;pointerEvents=0;enumerate=0;resizeHeight=1;resizeWidth=1;autosize=1;part=1;movable=1;rounded=0;fontFamily=Helvetica;fontSize=13;fontColor=default;" vertex="1" parent="o8XRS2fEIfPc32ZcXqOR-4">&#xa;            <mxGeometry y="206" width="420" height="30" as="geometry"/>&#xa;          </mxCell>&#xa;        </object>&#xa;        <object label="%fieldModify% %fieldName%: %fieldType%    #%fieldDesc%" placeholders="1" shapeType="FIELD" fieldName="reporteTime" fieldType="DateTime" fieldModify="-" fieldDesc="首次报备时间" id="kK66NA4HC-JT13vF96wr-9">&#xa;          <mxCell style="text;strokeColor=none;fillColor=none;align=left;verticalAlign=top;spacingLeft=4;spacingRight=4;overflow=hidden;rotatable=0;points=[];portConstraint=none;metaEdit=1;cloneable=1;rotation=0;connectable=1;container=0;dropTarget=1;imageAspect=1;absoluteArcSize=0;portConstraintRotation=0;snapToPoint=0;fixDash=0;pointerEvents=0;enumerate=0;resizeHeight=1;resizeWidth=1;autosize=1;part=1;movable=1;rounded=0;fontFamily=Helvetica;fontSize=13;fontColor=default;" vertex="1" parent="o8XRS2fEIfPc32ZcXqOR-4">&#xa;            <mxGeometry y="236" width="420" height="30" as="geometry"/>&#xa;          </mxCell>&#xa;        </object>&#xa;        <object label="%fieldModify% %fieldName%: %fieldType%    #%fieldDesc%" placeholders="1" shapeType="FIELD" fieldName="clientPhoneNumber" fieldType="String" fieldModify="-" fieldDesc="客户联系电话" id="kK66NA4HC-JT13vF96wr-8">&#xa;          <mxCell style="text;strokeColor=none;fillColor=none;align=left;verticalAlign=top;spacingLeft=4;spacingRight=4;overflow=hidden;rotatable=0;points=[];portConstraint=none;metaEdit=1;cloneable=1;rotation=0;connectable=1;container=0;dropTarget=1;imageAspect=1;absoluteArcSize=0;portConstraintRotation=0;snapToPoint=0;fixDash=0;pointerEvents=0;enumerate=0;resizeHeight=1;resizeWidth=1;autosize=1;part=1;movable=1;rounded=0;fontFamily=Helvetica;fontSize=13;fontColor=default;" vertex="1" parent="o8XRS2fEIfPc32ZcXqOR-4">&#xa;            <mxGeometry y="266" width="420" height="30" as="geometry"/>&#xa;          </mxCell>&#xa;        </object>&#xa;        <object label="%fieldModify% %fieldName%: %fieldType%    #%fieldDesc%" placeholders="1" shapeType="FIELD" fieldName="clientSex" fieldType="String" fieldModify="-" fieldDesc="客户性别" id="kK66NA4HC-JT13vF96wr-7">&#xa;          <mxCell style="text;strokeColor=none;fillColor=none;align=left;verticalAlign=top;spacingLeft=4;spacingRight=4;overflow=hidden;rotatable=0;points=[];portConstraint=none;metaEdit=1;cloneable=1;rotation=0;connectable=1;container=0;dropTarget=1;imageAspect=1;absoluteArcSize=0;portConstraintRotation=0;snapToPoint=0;fixDash=0;pointerEvents=0;enumerate=0;resizeHeight=1;resizeWidth=1;autosize=1;part=1;movable=1;rounded=0;fontFamily=Helvetica;fontSize=13;fontColor=default;" vertex="1" parent="o8XRS2fEIfPc32ZcXqOR-4">&#xa;            <mxGeometry y="296" width="420" height="30" as="geometry"/>&#xa;          </mxCell>&#xa;        </object>&#xa;        <object label="%fieldModify% %fieldName%: %fieldType%    #%fieldDesc%" placeholders="1" shapeType="FIELD" fieldName="clientVisitTime" fieldType="DateTime" fieldModify="-" fieldDesc="客户到访时间(线索首次到访时间)" id="kK66NA4HC-JT13vF96wr-6">&#xa;          <mxCell style="text;strokeColor=none;fillColor=none;align=left;verticalAlign=top;spacingLeft=4;spacingRight=4;overflow=hidden;rotatable=0;points=[];portConstraint=none;metaEdit=1;cloneable=1;rotation=0;connectable=1;container=0;dropTarget=1;imageAspect=1;absoluteArcSize=0;portConstraintRotation=0;snapToPoint=0;fixDash=0;pointerEvents=0;enumerate=0;resizeHeight=1;resizeWidth=1;autosize=1;part=1;movable=1;rounded=0;fontFamily=Helvetica;fontSize=13;fontColor=default;" vertex="1" parent="o8XRS2fEIfPc32ZcXqOR-4">&#xa;            <mxGeometry y="326" width="420" height="30" as="geometry"/>&#xa;          </mxCell>&#xa;        </object>&#xa;        <object label="%fieldModify% %fieldName%: %fieldType%    #%fieldDesc%" placeholders="1" shapeType="FIELD" fieldName="partnerNumber" fieldType="DateTime" fieldModify="-" fieldDesc="同行人数(确认到访后反补)" id="kK66NA4HC-JT13vF96wr-5">&#xa;          <mxCell style="text;strokeColor=none;fillColor=none;align=left;verticalAlign=top;spacingLeft=4;spacingRight=4;overflow=hidden;rotatable=0;points=[];portConstraint=none;metaEdit=1;cloneable=1;rotation=0;connectable=1;container=0;dropTarget=1;imageAspect=1;absoluteArcSize=0;portConstraintRotation=0;snapToPoint=0;fixDash=0;pointerEvents=0;enumerate=0;resizeHeight=1;resizeWidth=1;autosize=1;part=1;movable=1;rounded=0;fontFamily=Helvetica;fontSize=13;fontColor=default;" vertex="1" parent="o8XRS2fEIfPc32ZcXqOR-4">&#xa;            <mxGeometry y="356" width="420" height="30" as="geometry"/>&#xa;          </mxCell>&#xa;        </object>&#xa;        <object label="%fieldModify% %fieldName%: %fieldType%    #%fieldDesc%" placeholders="1" shapeType="FIELD" fieldName="reporterPhoneNumber" fieldType="String" fieldModify="-" fieldDesc="报备人联系电话" id="kK66NA4HC-JT13vF96wr-4">&#xa;          <mxCell style="text;strokeColor=none;fillColor=none;align=left;verticalAlign=top;spacingLeft=4;spacingRight=4;overflow=hidden;rotatable=0;points=[];portConstraint=none;metaEdit=1;cloneable=1;rotation=0;connectable=1;container=0;dropTarget=1;imageAspect=1;absoluteArcSize=0;portConstraintRotation=0;snapToPoint=0;fixDash=0;pointerEvents=0;enumerate=0;resizeHeight=1;resizeWidth=1;autosize=1;part=1;movable=1;rounded=0;fontFamily=Helvetica;fontSize=13;fontColor=default;" vertex="1" parent="o8XRS2fEIfPc32ZcXqOR-4">&#xa;            <mxGeometry y="386" width="420" height="30" as="geometry"/>&#xa;          </mxCell>&#xa;        </object>&#xa;        <object label="%fieldModify% %fieldName%: %fieldType%    #%fieldDesc%" placeholders="1" shapeType="FIELD" fieldName="reporterName" fieldType="String" fieldModify="-" fieldDesc="报备人姓名" id="kK66NA4HC-JT13vF96wr-3">&#xa;          <mxCell style="text;strokeColor=none;fillColor=none;align=left;verticalAlign=top;spacingLeft=4;spacingRight=4;overflow=hidden;rotatable=0;points=[];portConstraint=none;metaEdit=1;cloneable=1;rotation=0;connectable=1;container=0;dropTarget=1;imageAspect=1;absoluteArcSize=0;portConstraintRotation=0;snapToPoint=0;fixDash=0;pointerEvents=0;enumerate=0;resizeHeight=1;resizeWidth=1;autosize=1;part=1;movable=1;rounded=0;fontFamily=Helvetica;fontSize=13;fontColor=default;" vertex="1" parent="o8XRS2fEIfPc32ZcXqOR-4">&#xa;            <mxGeometry y="416" width="420" height="30" as="geometry"/>&#xa;          </mxCell>&#xa;        </object>&#xa;        <mxCell id="o8XRS2fEIfPc32ZcXqOR-9" value="" style="line;strokeWidth=1;fillColor=none;align=left;verticalAlign=middle;spacingTop=-1;spacingLeft=3;spacingRight=3;rotatable=0;labelPosition=right;points=[];portConstraint=eastwest;cloneable=1;rounded=0;part=1;fontFamily=Helvetica;fontSize=13;fontColor=default;" vertex="1" parent="o8XRS2fEIfPc32ZcXqOR-4">&#xa;          <mxGeometry y="446" width="420" height="8" as="geometry"/>&#xa;        </mxCell>&#xa;        <object label="《%shapeType%》&#10;%className%&#10;%classDesc%" placeholders="1" shapeType="VALUE_OBJECT" className="VisitEvidenceSceneFindDTO" classDesc="移动端-带看单-案场查询" id="kK66NA4HC-JT13vF96wr-14">&#xa;          <mxCell style="swimlane;fontStyle=5;align=center;verticalAlign=top;childLayout=stackLayout;horizontal=1;startSize=55;horizontalStack=0;resizeParent=1;resizeParentMax=0;resizeLast=0;collapsible=1;marginBottom=0;fixDash=1;container=1;enumerate=0;treeMoving=1;swimlaneBody=1;fillOpacity=100;strokeOpacity=100;overflow=visible;rounded=1;swimlaneLine=1;sketch=0;shadow=0;arcSize=6;strokeWidth=1;fillStyle=auto;swimlaneFillColor=default;metaEdit=1;labelPadding=0;cloneable=1;separatorColor=none;swimlaneHead=1;noLabel=0;direction=east;portConstraint=none;portConstraintRotation=0;rotation=0;connectable=1;snapToPoint=0;perimeter=rectanglePerimeter;dropTarget=1;expand=1;part=1;backgroundOutline=1;movableLabel=1;autosize=1;fixedWidth=0;resizable=1;resizeWidth=0;resizeHeight=0;rotatable=1;treeFolding=0;pointerEvents=1;moveCells=0;comic=0;enumerateValue=123;allowArrows=0;glass=0;fontFamily=Helvetica;fontSize=13;" vertex="1" parent="1">&#xa;            <mxGeometry x="1320" y="640" width="310" height="163" as="geometry">&#xa;              <mxRectangle x="70" y="410" width="250" height="50" as="alternateBounds"/>&#xa;            </mxGeometry>&#xa;          </mxCell>&#xa;        </object>&#xa;        <object label="%fieldModify% %fieldName%: %fieldType%    #%fieldDesc%" placeholders="1" shapeType="FIELD" fieldName="signerRole" fieldType="String" fieldModify="-" fieldDesc="签名人角色" id="y6w4xnMtLhlreuSDxd0q-3">&#xa;          <mxCell style="text;strokeColor=none;fillColor=none;align=left;verticalAlign=top;spacingLeft=4;spacingRight=4;overflow=hidden;rotatable=0;points=[];portConstraint=none;metaEdit=1;cloneable=1;rotation=0;connectable=1;container=0;dropTarget=1;imageAspect=1;absoluteArcSize=0;portConstraintRotation=0;snapToPoint=0;fixDash=0;pointerEvents=0;enumerate=0;resizeHeight=1;resizeWidth=1;autosize=1;part=1;movable=1;rounded=0;fontFamily=Helvetica;fontSize=13;fontColor=default;" vertex="1" parent="kK66NA4HC-JT13vF96wr-14">&#xa;            <mxGeometry y="55" width="310" height="20" as="geometry"/>&#xa;          </mxCell>&#xa;        </object>&#xa;        <object label="%fieldModify% %fieldName%: %fieldType%    #%fieldDesc%" placeholders="1" shapeType="FIELD" fieldName="signerId" fieldType="String" fieldModify="-" fieldDesc="签名人ID" id="y6w4xnMtLhlreuSDxd0q-4">&#xa;          <mxCell style="text;strokeColor=none;fillColor=none;align=left;verticalAlign=top;spacingLeft=4;spacingRight=4;overflow=hidden;rotatable=0;points=[];portConstraint=none;metaEdit=1;cloneable=1;rotation=0;connectable=1;container=0;dropTarget=1;imageAspect=1;absoluteArcSize=0;portConstraintRotation=0;snapToPoint=0;fixDash=0;pointerEvents=0;enumerate=0;resizeHeight=1;resizeWidth=1;autosize=1;part=1;movable=1;rounded=0;fontFamily=Helvetica;fontSize=13;fontColor=default;" vertex="1" parent="kK66NA4HC-JT13vF96wr-14">&#xa;            <mxGeometry y="75" width="310" height="20" as="geometry"/>&#xa;          </mxCell>&#xa;        </object>&#xa;        <object label="%fieldModify% %fieldName%: %fieldType%    #%fieldDesc%" placeholders="1" shapeType="FIELD" fieldName="clientName" fieldType="String" fieldModify="-" fieldDesc="客户姓名" id="kK66NA4HC-JT13vF96wr-16">&#xa;          <mxCell style="text;strokeColor=none;fillColor=none;align=left;verticalAlign=top;spacingLeft=4;spacingRight=4;overflow=hidden;rotatable=0;points=[];portConstraint=none;metaEdit=1;cloneable=1;rotation=0;connectable=1;container=0;dropTarget=1;imageAspect=1;absoluteArcSize=0;portConstraintRotation=0;snapToPoint=0;fixDash=0;pointerEvents=0;enumerate=0;resizeHeight=1;resizeWidth=1;autosize=1;part=1;movable=1;rounded=0;fontFamily=Helvetica;fontSize=13;fontColor=default;" vertex="1" parent="kK66NA4HC-JT13vF96wr-14">&#xa;            <mxGeometry y="95" width="310" height="20" as="geometry"/>&#xa;          </mxCell>&#xa;        </object>&#xa;        <object label="%fieldModify% %fieldName%: %fieldType%    #%fieldDesc%" placeholders="1" shapeType="FIELD" fieldName="clientPhoneNumber" fieldType="String" fieldModify="-" fieldDesc="客户联系电话" id="kK66NA4HC-JT13vF96wr-17">&#xa;          <mxCell style="text;strokeColor=none;fillColor=none;align=left;verticalAlign=top;spacingLeft=4;spacingRight=4;overflow=hidden;rotatable=0;points=[];portConstraint=none;metaEdit=1;cloneable=1;rotation=0;connectable=1;container=0;dropTarget=1;imageAspect=1;absoluteArcSize=0;portConstraintRotation=0;snapToPoint=0;fixDash=0;pointerEvents=0;enumerate=0;resizeHeight=1;resizeWidth=1;autosize=1;part=1;movable=1;rounded=0;fontFamily=Helvetica;fontSize=13;fontColor=default;" vertex="1" parent="kK66NA4HC-JT13vF96wr-14">&#xa;            <mxGeometry y="115" width="310" height="20" as="geometry"/>&#xa;          </mxCell>&#xa;        </object>&#xa;        <object label="%fieldModify% %fieldName%: %fieldType%    #%fieldDesc%" placeholders="1" shapeType="FIELD" fieldName="signatureStatus" fieldType="String" fieldModify="-" fieldDesc="签名状态" id="kK66NA4HC-JT13vF96wr-18">&#xa;          <mxCell style="text;strokeColor=none;fillColor=none;align=left;verticalAlign=top;spacingLeft=4;spacingRight=4;overflow=hidden;rotatable=0;points=[];portConstraint=none;metaEdit=1;cloneable=1;rotation=0;connectable=1;container=0;dropTarget=1;imageAspect=1;absoluteArcSize=0;portConstraintRotation=0;snapToPoint=0;fixDash=0;pointerEvents=0;enumerate=0;resizeHeight=1;resizeWidth=1;autosize=1;part=1;movable=1;rounded=0;fontFamily=Helvetica;fontSize=13;fontColor=default;" vertex="1" parent="kK66NA4HC-JT13vF96wr-14">&#xa;            <mxGeometry y="135" width="310" height="20" as="geometry"/>&#xa;          </mxCell>&#xa;        </object>&#xa;        <mxCell id="kK66NA4HC-JT13vF96wr-19" value="" style="line;strokeWidth=1;fillColor=none;align=left;verticalAlign=middle;spacingTop=-1;spacingLeft=3;spacingRight=3;rotatable=0;labelPosition=right;points=[];portConstraint=eastwest;cloneable=1;rounded=0;part=1;fontFamily=Helvetica;fontSize=13;fontColor=default;" vertex="1" parent="kK66NA4HC-JT13vF96wr-14">&#xa;          <mxGeometry y="155" width="310" height="8" as="geometry"/>&#xa;        </mxCell>&#xa;        <object label="《%shapeType%》&#10;%className%&#10;%classDesc%" placeholders="1" shapeType="VALUE_OBJECT" className="VisitEvidenceDistributionFindVO" classDesc="移动端-带看单-案场查询" id="kK66NA4HC-JT13vF96wr-20">&#xa;          <mxCell style="swimlane;fontStyle=5;align=center;verticalAlign=top;childLayout=stackLayout;horizontal=1;startSize=55;horizontalStack=0;resizeParent=1;resizeParentMax=0;resizeLast=0;collapsible=1;marginBottom=0;fixDash=1;container=1;enumerate=0;treeMoving=1;swimlaneBody=1;fillOpacity=100;strokeOpacity=100;overflow=visible;rounded=1;swimlaneLine=1;sketch=0;shadow=0;arcSize=6;strokeWidth=1;fillStyle=auto;swimlaneFillColor=default;metaEdit=1;labelPadding=0;cloneable=1;separatorColor=none;swimlaneHead=1;noLabel=0;direction=east;portConstraint=none;portConstraintRotation=0;rotation=0;connectable=1;snapToPoint=0;perimeter=rectanglePerimeter;dropTarget=1;expand=1;part=1;backgroundOutline=1;movableLabel=1;autosize=1;fixedWidth=0;resizable=1;resizeWidth=0;resizeHeight=0;rotatable=1;treeFolding=0;pointerEvents=1;moveCells=0;comic=0;enumerateValue=123;allowArrows=0;glass=0;fontFamily=Helvetica;fontSize=13;" vertex="1" parent="1">&#xa;            <mxGeometry x="1270" y="830" width="420" height="454" as="geometry">&#xa;              <mxRectangle x="70" y="410" width="250" height="50" as="alternateBounds"/>&#xa;            </mxGeometry>&#xa;          </mxCell>&#xa;        </object>&#xa;        <object label="%fieldModify% %fieldName%: %fieldType%    #%fieldDesc%" placeholders="1" shapeType="FIELD" fieldName="id" fieldType="Long" fieldModify="-" fieldDesc="主键" id="kK66NA4HC-JT13vF96wr-21">&#xa;          <mxCell style="text;strokeColor=none;fillColor=none;align=left;verticalAlign=top;spacingLeft=4;spacingRight=4;overflow=hidden;rotatable=0;points=[];portConstraint=none;metaEdit=1;cloneable=1;rotation=0;connectable=1;container=0;dropTarget=1;imageAspect=1;absoluteArcSize=0;portConstraintRotation=0;snapToPoint=0;fixDash=0;pointerEvents=0;enumerate=0;resizeHeight=1;resizeWidth=1;autosize=1;part=1;movable=1;rounded=0;fontFamily=Helvetica;fontSize=13;fontColor=default;" vertex="1" parent="kK66NA4HC-JT13vF96wr-20">&#xa;            <mxGeometry y="55" width="420" height="30" as="geometry"/>&#xa;          </mxCell>&#xa;        </object>&#xa;        <object label="%fieldModify% %fieldName%: %fieldType%    #%fieldDesc%" placeholders="1" shapeType="FIELD" fieldName="visitEvidenceCode" fieldType="String" fieldModify="-" fieldDesc="带看单编号：区域名称（中文）+项目名称（中文）+年月日+00000001（根据带看单数量自动增加，项目单独计算，每个项目都是从00000001开始，计数跨年重置，重新计算）" id="kK66NA4HC-JT13vF96wr-22">&#xa;          <mxCell style="text;strokeColor=none;fillColor=none;align=left;verticalAlign=top;spacingLeft=4;spacingRight=4;overflow=hidden;rotatable=0;points=[];portConstraint=none;metaEdit=1;cloneable=1;rotation=0;connectable=1;container=0;dropTarget=1;imageAspect=1;absoluteArcSize=0;portConstraintRotation=0;snapToPoint=0;fixDash=0;pointerEvents=0;enumerate=0;resizeHeight=1;resizeWidth=1;autosize=1;part=1;movable=1;rounded=0;fontFamily=Helvetica;fontSize=13;fontColor=default;" vertex="1" parent="kK66NA4HC-JT13vF96wr-20">&#xa;            <mxGeometry y="85" width="420" height="31" as="geometry"/>&#xa;          </mxCell>&#xa;        </object>&#xa;        <object label="%fieldModify% %fieldName%: %fieldType%    #%fieldDesc%" placeholders="1" shapeType="FIELD" fieldName="signatureList" fieldType="List&lt;Signature&gt;" fieldModify="-" fieldDesc="签名列表" id="kK66NA4HC-JT13vF96wr-23">&#xa;          <mxCell style="text;strokeColor=none;fillColor=none;align=left;verticalAlign=top;spacingLeft=4;spacingRight=4;overflow=hidden;rotatable=0;points=[];portConstraint=none;metaEdit=1;cloneable=1;rotation=0;connectable=1;container=0;dropTarget=1;imageAspect=1;absoluteArcSize=0;portConstraintRotation=0;snapToPoint=0;fixDash=0;pointerEvents=0;enumerate=0;resizeHeight=1;resizeWidth=1;autosize=1;part=1;movable=1;rounded=0;fontFamily=Helvetica;fontSize=13;fontColor=default;" vertex="1" parent="kK66NA4HC-JT13vF96wr-20">&#xa;            <mxGeometry y="116" width="420" height="30" as="geometry"/>&#xa;          </mxCell>&#xa;        </object>&#xa;        <object label="%fieldModify% %fieldName%: %fieldType%    #%fieldDesc%" placeholders="1" shapeType="FIELD" fieldName="clientName" fieldType="String" fieldModify="-" fieldDesc="客户姓名" id="kK66NA4HC-JT13vF96wr-24">&#xa;          <mxCell style="text;strokeColor=none;fillColor=none;align=left;verticalAlign=top;spacingLeft=4;spacingRight=4;overflow=hidden;rotatable=0;points=[];portConstraint=none;metaEdit=1;cloneable=1;rotation=0;connectable=1;container=0;dropTarget=1;imageAspect=1;absoluteArcSize=0;portConstraintRotation=0;snapToPoint=0;fixDash=0;pointerEvents=0;enumerate=0;resizeHeight=1;resizeWidth=1;autosize=1;part=1;movable=1;rounded=0;fontFamily=Helvetica;fontSize=13;fontColor=default;" vertex="1" parent="kK66NA4HC-JT13vF96wr-20">&#xa;            <mxGeometry y="146" width="420" height="30" as="geometry"/>&#xa;          </mxCell>&#xa;        </object>&#xa;        <object label="%fieldModify% %fieldName%: %fieldType%    #%fieldDesc%" placeholders="1" shapeType="FIELD" fieldName="IDNumber" fieldType="String" fieldModify="-" fieldDesc="身份证号码" id="kK66NA4HC-JT13vF96wr-25">&#xa;          <mxCell style="text;strokeColor=none;fillColor=none;align=left;verticalAlign=top;spacingLeft=4;spacingRight=4;overflow=hidden;rotatable=0;points=[];portConstraint=none;metaEdit=1;cloneable=1;rotation=0;connectable=1;container=0;dropTarget=1;imageAspect=1;absoluteArcSize=0;portConstraintRotation=0;snapToPoint=0;fixDash=0;pointerEvents=0;enumerate=0;resizeHeight=1;resizeWidth=1;autosize=1;part=1;movable=1;rounded=0;fontFamily=Helvetica;fontSize=13;fontColor=default;" vertex="1" parent="kK66NA4HC-JT13vF96wr-20">&#xa;            <mxGeometry y="176" width="420" height="30" as="geometry"/>&#xa;          </mxCell>&#xa;        </object>&#xa;        <object label="%fieldModify% %fieldName%: %fieldType%    #%fieldDesc%" placeholders="1" shapeType="FIELD" fieldName="channelName" fieldType="String" fieldModify="-" fieldDesc="渠道平台名称（一级身份+二级身份，例如：分销-某某公司）" id="kK66NA4HC-JT13vF96wr-26">&#xa;          <mxCell style="text;strokeColor=none;fillColor=none;align=left;verticalAlign=top;spacingLeft=4;spacingRight=4;overflow=hidden;rotatable=0;points=[];portConstraint=none;metaEdit=1;cloneable=1;rotation=0;connectable=1;container=0;dropTarget=1;imageAspect=1;absoluteArcSize=0;portConstraintRotation=0;snapToPoint=0;fixDash=0;pointerEvents=0;enumerate=0;resizeHeight=1;resizeWidth=1;autosize=1;part=1;movable=1;rounded=0;fontFamily=Helvetica;fontSize=13;fontColor=default;" vertex="1" parent="kK66NA4HC-JT13vF96wr-20">&#xa;            <mxGeometry y="206" width="420" height="30" as="geometry"/>&#xa;          </mxCell>&#xa;        </object>&#xa;        <object label="%fieldModify% %fieldName%: %fieldType%    #%fieldDesc%" placeholders="1" shapeType="FIELD" fieldName="reporteTime" fieldType="DateTime" fieldModify="-" fieldDesc="首次报备时间" id="kK66NA4HC-JT13vF96wr-27">&#xa;          <mxCell style="text;strokeColor=none;fillColor=none;align=left;verticalAlign=top;spacingLeft=4;spacingRight=4;overflow=hidden;rotatable=0;points=[];portConstraint=none;metaEdit=1;cloneable=1;rotation=0;connectable=1;container=0;dropTarget=1;imageAspect=1;absoluteArcSize=0;portConstraintRotation=0;snapToPoint=0;fixDash=0;pointerEvents=0;enumerate=0;resizeHeight=1;resizeWidth=1;autosize=1;part=1;movable=1;rounded=0;fontFamily=Helvetica;fontSize=13;fontColor=default;" vertex="1" parent="kK66NA4HC-JT13vF96wr-20">&#xa;            <mxGeometry y="236" width="420" height="30" as="geometry"/>&#xa;          </mxCell>&#xa;        </object>&#xa;        <object label="%fieldModify% %fieldName%: %fieldType%    #%fieldDesc%" placeholders="1" shapeType="FIELD" fieldName="clientPhoneNumber" fieldType="String" fieldModify="-" fieldDesc="客户联系电话" id="kK66NA4HC-JT13vF96wr-28">&#xa;          <mxCell style="text;strokeColor=none;fillColor=none;align=left;verticalAlign=top;spacingLeft=4;spacingRight=4;overflow=hidden;rotatable=0;points=[];portConstraint=none;metaEdit=1;cloneable=1;rotation=0;connectable=1;container=0;dropTarget=1;imageAspect=1;absoluteArcSize=0;portConstraintRotation=0;snapToPoint=0;fixDash=0;pointerEvents=0;enumerate=0;resizeHeight=1;resizeWidth=1;autosize=1;part=1;movable=1;rounded=0;fontFamily=Helvetica;fontSize=13;fontColor=default;" vertex="1" parent="kK66NA4HC-JT13vF96wr-20">&#xa;            <mxGeometry y="266" width="420" height="30" as="geometry"/>&#xa;          </mxCell>&#xa;        </object>&#xa;        <object label="%fieldModify% %fieldName%: %fieldType%    #%fieldDesc%" placeholders="1" shapeType="FIELD" fieldName="clientSex" fieldType="String" fieldModify="-" fieldDesc="客户性别" id="kK66NA4HC-JT13vF96wr-29">&#xa;          <mxCell style="text;strokeColor=none;fillColor=none;align=left;verticalAlign=top;spacingLeft=4;spacingRight=4;overflow=hidden;rotatable=0;points=[];portConstraint=none;metaEdit=1;cloneable=1;rotation=0;connectable=1;container=0;dropTarget=1;imageAspect=1;absoluteArcSize=0;portConstraintRotation=0;snapToPoint=0;fixDash=0;pointerEvents=0;enumerate=0;resizeHeight=1;resizeWidth=1;autosize=1;part=1;movable=1;rounded=0;fontFamily=Helvetica;fontSize=13;fontColor=default;" vertex="1" parent="kK66NA4HC-JT13vF96wr-20">&#xa;            <mxGeometry y="296" width="420" height="30" as="geometry"/>&#xa;          </mxCell>&#xa;        </object>&#xa;        <object label="%fieldModify% %fieldName%: %fieldType%    #%fieldDesc%" placeholders="1" shapeType="FIELD" fieldName="clientVisitTime" fieldType="DateTime" fieldModify="-" fieldDesc="客户到访时间(线索首次到访时间)" id="kK66NA4HC-JT13vF96wr-30">&#xa;          <mxCell style="text;strokeColor=none;fillColor=none;align=left;verticalAlign=top;spacingLeft=4;spacingRight=4;overflow=hidden;rotatable=0;points=[];portConstraint=none;metaEdit=1;cloneable=1;rotation=0;connectable=1;container=0;dropTarget=1;imageAspect=1;absoluteArcSize=0;portConstraintRotation=0;snapToPoint=0;fixDash=0;pointerEvents=0;enumerate=0;resizeHeight=1;resizeWidth=1;autosize=1;part=1;movable=1;rounded=0;fontFamily=Helvetica;fontSize=13;fontColor=default;" vertex="1" parent="kK66NA4HC-JT13vF96wr-20">&#xa;            <mxGeometry y="326" width="420" height="30" as="geometry"/>&#xa;          </mxCell>&#xa;        </object>&#xa;        <object label="%fieldModify% %fieldName%: %fieldType%    #%fieldDesc%" placeholders="1" shapeType="FIELD" fieldName="partnerNumber" fieldType="DateTime" fieldModify="-" fieldDesc="同行人数(确认到访后反补)" id="kK66NA4HC-JT13vF96wr-31">&#xa;          <mxCell style="text;strokeColor=none;fillColor=none;align=left;verticalAlign=top;spacingLeft=4;spacingRight=4;overflow=hidden;rotatable=0;points=[];portConstraint=none;metaEdit=1;cloneable=1;rotation=0;connectable=1;container=0;dropTarget=1;imageAspect=1;absoluteArcSize=0;portConstraintRotation=0;snapToPoint=0;fixDash=0;pointerEvents=0;enumerate=0;resizeHeight=1;resizeWidth=1;autosize=1;part=1;movable=1;rounded=0;fontFamily=Helvetica;fontSize=13;fontColor=default;" vertex="1" parent="kK66NA4HC-JT13vF96wr-20">&#xa;            <mxGeometry y="356" width="420" height="30" as="geometry"/>&#xa;          </mxCell>&#xa;        </object>&#xa;        <object label="%fieldModify% %fieldName%: %fieldType%    #%fieldDesc%" placeholders="1" shapeType="FIELD" fieldName="reporterPhoneNumber" fieldType="String" fieldModify="-" fieldDesc="报备人联系电话" id="kK66NA4HC-JT13vF96wr-32">&#xa;          <mxCell style="text;strokeColor=none;fillColor=none;align=left;verticalAlign=top;spacingLeft=4;spacingRight=4;overflow=hidden;rotatable=0;points=[];portConstraint=none;metaEdit=1;cloneable=1;rotation=0;connectable=1;container=0;dropTarget=1;imageAspect=1;absoluteArcSize=0;portConstraintRotation=0;snapToPoint=0;fixDash=0;pointerEvents=0;enumerate=0;resizeHeight=1;resizeWidth=1;autosize=1;part=1;movable=1;rounded=0;fontFamily=Helvetica;fontSize=13;fontColor=default;" vertex="1" parent="kK66NA4HC-JT13vF96wr-20">&#xa;            <mxGeometry y="386" width="420" height="30" as="geometry"/>&#xa;          </mxCell>&#xa;        </object>&#xa;        <object label="%fieldModify% %fieldName%: %fieldType%    #%fieldDesc%" placeholders="1" shapeType="FIELD" fieldName="reporterName" fieldType="String" fieldModify="-" fieldDesc="报备人姓名" id="kK66NA4HC-JT13vF96wr-33">&#xa;          <mxCell style="text;strokeColor=none;fillColor=none;align=left;verticalAlign=top;spacingLeft=4;spacingRight=4;overflow=hidden;rotatable=0;points=[];portConstraint=none;metaEdit=1;cloneable=1;rotation=0;connectable=1;container=0;dropTarget=1;imageAspect=1;absoluteArcSize=0;portConstraintRotation=0;snapToPoint=0;fixDash=0;pointerEvents=0;enumerate=0;resizeHeight=1;resizeWidth=1;autosize=1;part=1;movable=1;rounded=0;fontFamily=Helvetica;fontSize=13;fontColor=default;" vertex="1" parent="kK66NA4HC-JT13vF96wr-20">&#xa;            <mxGeometry y="416" width="420" height="30" as="geometry"/>&#xa;          </mxCell>&#xa;        </object>&#xa;        <mxCell id="kK66NA4HC-JT13vF96wr-34" value="" style="line;strokeWidth=1;fillColor=none;align=left;verticalAlign=middle;spacingTop=-1;spacingLeft=3;spacingRight=3;rotatable=0;labelPosition=right;points=[];portConstraint=eastwest;cloneable=1;rounded=0;part=1;fontFamily=Helvetica;fontSize=13;fontColor=default;" vertex="1" parent="kK66NA4HC-JT13vF96wr-20">&#xa;          <mxGeometry y="446" width="420" height="8" as="geometry"/>&#xa;        </mxCell>&#xa;        <object label="《%shapeType%》&lt;br&gt;%rule%" shapeType="RULE" rule="i. 分销查询：在小程序客户列表渠道带看单分类查询自己名下的未完成签名情况；可以根据客户姓名、手机号码快速搜索；也可以根据签名状态过滤搜索。" placeholders="1" id="kK66NA4HC-JT13vF96wr-35">&#xa;          <mxCell style="rounded=0;whiteSpace=wrap;html=1;shadow=0;glass=0;labelBackgroundColor=none;labelBorderColor=none;sketch=0;fillStyle=auto;fontSize=12;strokeWidth=1;cloneable=1;metaEdit=1;imageWidth=24;arcSize=21;absoluteArcSize=1;connectable=0;allowArrows=0;rotatable=0;" vertex="1" parent="1">&#xa;            <mxGeometry x="850" y="490" width="260" height="130" as="geometry"/>&#xa;          </mxCell>&#xa;        </object>&#xa;        <object label="《%shapeType%》&lt;br&gt;%rule%" shapeType="RULE" rule="ii. 案场查询：在APP客户-渠道带看单待签名客户列表查询自己名下的未完成签名情况；可以根据客户姓名、手机号码快速搜索；也可以根据签名状态过滤搜索。" placeholders="1" id="kK66NA4HC-JT13vF96wr-36">&#xa;          <mxCell style="rounded=0;whiteSpace=wrap;html=1;shadow=0;glass=0;labelBackgroundColor=none;labelBorderColor=none;sketch=0;fillStyle=auto;fontSize=12;strokeWidth=1;cloneable=1;metaEdit=1;imageWidth=24;arcSize=21;absoluteArcSize=1;connectable=0;allowArrows=0;rotatable=0;" vertex="1" parent="1">&#xa;            <mxGeometry x="1330" y="480" width="280" height="130" as="geometry"/>&#xa;          </mxCell>&#xa;        </object>&#xa;        <object label="《%shapeType%》&lt;br&gt;%rule%" shapeType="RULE" rule="iii. 行销查询：在客户列表，根据带看单签名状态筛选查询自己名下的未完成签名情况；可以根据客户姓名、手机号码快速搜索；也可以根据签名状态过滤搜索。" placeholders="1" id="kK66NA4HC-JT13vF96wr-37">&#xa;          <mxCell style="rounded=0;whiteSpace=wrap;html=1;shadow=0;glass=0;labelBackgroundColor=none;labelBorderColor=none;sketch=0;fillStyle=auto;fontSize=12;strokeWidth=1;cloneable=1;metaEdit=1;imageWidth=24;arcSize=21;absoluteArcSize=1;connectable=0;allowArrows=0;rotatable=0;" vertex="1" parent="1">&#xa;            <mxGeometry x="1850" y="490" width="220" height="110" as="geometry"/>&#xa;          </mxCell>&#xa;        </object>&#xa;        <object label="《%shapeType%》&lt;br&gt;%rule%" shapeType="RULE" rule="b) PC端查询：分销、行销、案场、客户中心的客户详情，增加“渠道带看单”页；渠道带看单页面签名内容实时查看，所有能查看客户的用户都可以进行查看。" placeholders="1" id="kK66NA4HC-JT13vF96wr-38">&#xa;          <mxCell style="rounded=0;whiteSpace=wrap;html=1;shadow=0;glass=0;labelBackgroundColor=none;labelBorderColor=none;sketch=0;fillStyle=auto;fontSize=12;strokeWidth=1;cloneable=1;metaEdit=1;imageWidth=24;arcSize=21;absoluteArcSize=1;connectable=0;allowArrows=0;rotatable=0;" vertex="1" parent="1">&#xa;            <mxGeometry x="2360" y="490" width="240" height="110" as="geometry"/>&#xa;          </mxCell>&#xa;        </object>&#xa;        <object label="《%shapeType%》&#10;%className%&#10;%classDesc%" placeholders="1" shapeType="VALUE_OBJECT" className="VisitEvidenceSellFindDTO" classDesc="移动端-带看单-行销查询" id="y6w4xnMtLhlreuSDxd0q-28">&#xa;          <mxCell style="swimlane;fontStyle=5;align=center;verticalAlign=top;childLayout=stackLayout;horizontal=1;startSize=55;horizontalStack=0;resizeParent=1;resizeParentMax=0;resizeLast=0;collapsible=1;marginBottom=0;fixDash=1;container=1;enumerate=0;treeMoving=1;swimlaneBody=1;fillOpacity=100;strokeOpacity=100;overflow=visible;rounded=1;swimlaneLine=1;sketch=0;shadow=0;arcSize=6;strokeWidth=1;fillStyle=auto;swimlaneFillColor=default;metaEdit=1;labelPadding=0;cloneable=1;separatorColor=none;swimlaneHead=1;noLabel=0;direction=east;portConstraint=none;portConstraintRotation=0;rotation=0;connectable=1;snapToPoint=0;perimeter=rectanglePerimeter;dropTarget=1;expand=1;part=1;backgroundOutline=1;movableLabel=1;autosize=1;fixedWidth=0;resizable=1;resizeWidth=0;resizeHeight=0;rotatable=1;treeFolding=0;pointerEvents=1;moveCells=0;comic=0;enumerateValue=123;allowArrows=0;glass=0;fontFamily=Helvetica;fontSize=13;" vertex="1" parent="1">&#xa;            <mxGeometry x="1810" y="640" width="310" height="163" as="geometry">&#xa;              <mxRectangle x="70" y="410" width="250" height="50" as="alternateBounds"/>&#xa;            </mxGeometry>&#xa;          </mxCell>&#xa;        </object>&#xa;        <object label="%fieldModify% %fieldName%: %fieldType%    #%fieldDesc%" placeholders="1" shapeType="FIELD" fieldName="signerRole" fieldType="String" fieldModify="-" fieldDesc="签名人角色" id="y6w4xnMtLhlreuSDxd0q-29">&#xa;          <mxCell style="text;strokeColor=none;fillColor=none;align=left;verticalAlign=top;spacingLeft=4;spacingRight=4;overflow=hidden;rotatable=0;points=[];portConstraint=none;metaEdit=1;cloneable=1;rotation=0;connectable=1;container=0;dropTarget=1;imageAspect=1;absoluteArcSize=0;portConstraintRotation=0;snapToPoint=0;fixDash=0;pointerEvents=0;enumerate=0;resizeHeight=1;resizeWidth=1;autosize=1;part=1;movable=1;rounded=0;fontFamily=Helvetica;fontSize=13;fontColor=default;" vertex="1" parent="y6w4xnMtLhlreuSDxd0q-28">&#xa;            <mxGeometry y="55" width="310" height="20" as="geometry"/>&#xa;          </mxCell>&#xa;        </object>&#xa;        <object label="%fieldModify% %fieldName%: %fieldType%    #%fieldDesc%" placeholders="1" shapeType="FIELD" fieldName="signerId" fieldType="String" fieldModify="-" fieldDesc="签名人ID" id="y6w4xnMtLhlreuSDxd0q-30">&#xa;          <mxCell style="text;strokeColor=none;fillColor=none;align=left;verticalAlign=top;spacingLeft=4;spacingRight=4;overflow=hidden;rotatable=0;points=[];portConstraint=none;metaEdit=1;cloneable=1;rotation=0;connectable=1;container=0;dropTarget=1;imageAspect=1;absoluteArcSize=0;portConstraintRotation=0;snapToPoint=0;fixDash=0;pointerEvents=0;enumerate=0;resizeHeight=1;resizeWidth=1;autosize=1;part=1;movable=1;rounded=0;fontFamily=Helvetica;fontSize=13;fontColor=default;" vertex="1" parent="y6w4xnMtLhlreuSDxd0q-28">&#xa;            <mxGeometry y="75" width="310" height="20" as="geometry"/>&#xa;          </mxCell>&#xa;        </object>&#xa;        <object label="%fieldModify% %fieldName%: %fieldType%    #%fieldDesc%" placeholders="1" shapeType="FIELD" fieldName="clientName" fieldType="String" fieldModify="-" fieldDesc="客户姓名" id="y6w4xnMtLhlreuSDxd0q-31">&#xa;          <mxCell style="text;strokeColor=none;fillColor=none;align=left;verticalAlign=top;spacingLeft=4;spacingRight=4;overflow=hidden;rotatable=0;points=[];portConstraint=none;metaEdit=1;cloneable=1;rotation=0;connectable=1;container=0;dropTarget=1;imageAspect=1;absoluteArcSize=0;portConstraintRotation=0;snapToPoint=0;fixDash=0;pointerEvents=0;enumerate=0;resizeHeight=1;resizeWidth=1;autosize=1;part=1;movable=1;rounded=0;fontFamily=Helvetica;fontSize=13;fontColor=default;" vertex="1" parent="y6w4xnMtLhlreuSDxd0q-28">&#xa;            <mxGeometry y="95" width="310" height="20" as="geometry"/>&#xa;          </mxCell>&#xa;        </object>&#xa;        <object label="%fieldModify% %fieldName%: %fieldType%    #%fieldDesc%" placeholders="1" shapeType="FIELD" fieldName="clientPhoneNumber" fieldType="String" fieldModify="-" fieldDesc="客户联系电话" id="y6w4xnMtLhlreuSDxd0q-32">&#xa;          <mxCell style="text;strokeColor=none;fillColor=none;align=left;verticalAlign=top;spacingLeft=4;spacingRight=4;overflow=hidden;rotatable=0;points=[];portConstraint=none;metaEdit=1;cloneable=1;rotation=0;connectable=1;container=0;dropTarget=1;imageAspect=1;absoluteArcSize=0;portConstraintRotation=0;snapToPoint=0;fixDash=0;pointerEvents=0;enumerate=0;resizeHeight=1;resizeWidth=1;autosize=1;part=1;movable=1;rounded=0;fontFamily=Helvetica;fontSize=13;fontColor=default;" vertex="1" parent="y6w4xnMtLhlreuSDxd0q-28">&#xa;            <mxGeometry y="115" width="310" height="20" as="geometry"/>&#xa;          </mxCell>&#xa;        </object>&#xa;        <object label="%fieldModify% %fieldName%: %fieldType%    #%fieldDesc%" placeholders="1" shapeType="FIELD" fieldName="signatureStatus" fieldType="String" fieldModify="-" fieldDesc="签名状态" id="y6w4xnMtLhlreuSDxd0q-33">&#xa;          <mxCell style="text;strokeColor=none;fillColor=none;align=left;verticalAlign=top;spacingLeft=4;spacingRight=4;overflow=hidden;rotatable=0;points=[];portConstraint=none;metaEdit=1;cloneable=1;rotation=0;connectable=1;container=0;dropTarget=1;imageAspect=1;absoluteArcSize=0;portConstraintRotation=0;snapToPoint=0;fixDash=0;pointerEvents=0;enumerate=0;resizeHeight=1;resizeWidth=1;autosize=1;part=1;movable=1;rounded=0;fontFamily=Helvetica;fontSize=13;fontColor=default;" vertex="1" parent="y6w4xnMtLhlreuSDxd0q-28">&#xa;            <mxGeometry y="135" width="310" height="20" as="geometry"/>&#xa;          </mxCell>&#xa;        </object>&#xa;        <mxCell id="y6w4xnMtLhlreuSDxd0q-34" value="" style="line;strokeWidth=1;fillColor=none;align=left;verticalAlign=middle;spacingTop=-1;spacingLeft=3;spacingRight=3;rotatable=0;labelPosition=right;points=[];portConstraint=eastwest;cloneable=1;rounded=0;part=1;fontFamily=Helvetica;fontSize=13;fontColor=default;" vertex="1" parent="y6w4xnMtLhlreuSDxd0q-28">&#xa;          <mxGeometry y="155" width="310" height="8" as="geometry"/>&#xa;        </mxCell>&#xa;        <object label="《%shapeType%》&#10;%className%&#10;%classDesc%" placeholders="1" shapeType="VALUE_OBJECT" className="VisitEvidenceDistributionFindVO" classDesc="移动端-带看单-案场查询" id="y6w4xnMtLhlreuSDxd0q-35">&#xa;          <mxCell style="swimlane;fontStyle=5;align=center;verticalAlign=top;childLayout=stackLayout;horizontal=1;startSize=55;horizontalStack=0;resizeParent=1;resizeParentMax=0;resizeLast=0;collapsible=1;marginBottom=0;fixDash=1;container=1;enumerate=0;treeMoving=1;swimlaneBody=1;fillOpacity=100;strokeOpacity=100;overflow=visible;rounded=1;swimlaneLine=1;sketch=0;shadow=0;arcSize=6;strokeWidth=1;fillStyle=auto;swimlaneFillColor=default;metaEdit=1;labelPadding=0;cloneable=1;separatorColor=none;swimlaneHead=1;noLabel=0;direction=east;portConstraint=none;portConstraintRotation=0;rotation=0;connectable=1;snapToPoint=0;perimeter=rectanglePerimeter;dropTarget=1;expand=1;part=1;backgroundOutline=1;movableLabel=1;autosize=1;fixedWidth=0;resizable=1;resizeWidth=0;resizeHeight=0;rotatable=1;treeFolding=0;pointerEvents=1;moveCells=0;comic=0;enumerateValue=123;allowArrows=0;glass=0;fontFamily=Helvetica;fontSize=13;" vertex="1" parent="1">&#xa;            <mxGeometry x="1760" y="830" width="420" height="454" as="geometry">&#xa;              <mxRectangle x="70" y="410" width="250" height="50" as="alternateBounds"/>&#xa;            </mxGeometry>&#xa;          </mxCell>&#xa;        </object>&#xa;        <object label="%fieldModify% %fieldName%: %fieldType%    #%fieldDesc%" placeholders="1" shapeType="FIELD" fieldName="id" fieldType="Long" fieldModify="-" fieldDesc="主键" id="y6w4xnMtLhlreuSDxd0q-36">&#xa;          <mxCell style="text;strokeColor=none;fillColor=none;align=left;verticalAlign=top;spacingLeft=4;spacingRight=4;overflow=hidden;rotatable=0;points=[];portConstraint=none;metaEdit=1;cloneable=1;rotation=0;connectable=1;container=0;dropTarget=1;imageAspect=1;absoluteArcSize=0;portConstraintRotation=0;snapToPoint=0;fixDash=0;pointerEvents=0;enumerate=0;resizeHeight=1;resizeWidth=1;autosize=1;part=1;movable=1;rounded=0;fontFamily=Helvetica;fontSize=13;fontColor=default;" vertex="1" parent="y6w4xnMtLhlreuSDxd0q-35">&#xa;            <mxGeometry y="55" width="420" height="30" as="geometry"/>&#xa;          </mxCell>&#xa;        </object>&#xa;        <object label="%fieldModify% %fieldName%: %fieldType%    #%fieldDesc%" placeholders="1" shapeType="FIELD" fieldName="visitEvidenceCode" fieldType="String" fieldModify="-" fieldDesc="带看单编号：区域名称（中文）+项目名称（中文）+年月日+00000001（根据带看单数量自动增加，项目单独计算，每个项目都是从00000001开始，计数跨年重置，重新计算）" id="y6w4xnMtLhlreuSDxd0q-37">&#xa;          <mxCell style="text;strokeColor=none;fillColor=none;align=left;verticalAlign=top;spacingLeft=4;spacingRight=4;overflow=hidden;rotatable=0;points=[];portConstraint=none;metaEdit=1;cloneable=1;rotation=0;connectable=1;container=0;dropTarget=1;imageAspect=1;absoluteArcSize=0;portConstraintRotation=0;snapToPoint=0;fixDash=0;pointerEvents=0;enumerate=0;resizeHeight=1;resizeWidth=1;autosize=1;part=1;movable=1;rounded=0;fontFamily=Helvetica;fontSize=13;fontColor=default;" vertex="1" parent="y6w4xnMtLhlreuSDxd0q-35">&#xa;            <mxGeometry y="85" width="420" height="31" as="geometry"/>&#xa;          </mxCell>&#xa;        </object>&#xa;        <object label="%fieldModify% %fieldName%: %fieldType%    #%fieldDesc%" placeholders="1" shapeType="FIELD" fieldName="signatureList" fieldType="List&lt;Signature&gt;" fieldModify="-" fieldDesc="签名列表" id="y6w4xnMtLhlreuSDxd0q-38">&#xa;          <mxCell style="text;strokeColor=none;fillColor=none;align=left;verticalAlign=top;spacingLeft=4;spacingRight=4;overflow=hidden;rotatable=0;points=[];portConstraint=none;metaEdit=1;cloneable=1;rotation=0;connectable=1;container=0;dropTarget=1;imageAspect=1;absoluteArcSize=0;portConstraintRotation=0;snapToPoint=0;fixDash=0;pointerEvents=0;enumerate=0;resizeHeight=1;resizeWidth=1;autosize=1;part=1;movable=1;rounded=0;fontFamily=Helvetica;fontSize=13;fontColor=default;" vertex="1" parent="y6w4xnMtLhlreuSDxd0q-35">&#xa;            <mxGeometry y="116" width="420" height="30" as="geometry"/>&#xa;          </mxCell>&#xa;        </object>&#xa;        <object label="%fieldModify% %fieldName%: %fieldType%    #%fieldDesc%" placeholders="1" shapeType="FIELD" fieldName="clientName" fieldType="String" fieldModify="-" fieldDesc="客户姓名" id="y6w4xnMtLhlreuSDxd0q-39">&#xa;          <mxCell style="text;strokeColor=none;fillColor=none;align=left;verticalAlign=top;spacingLeft=4;spacingRight=4;overflow=hidden;rotatable=0;points=[];portConstraint=none;metaEdit=1;cloneable=1;rotation=0;connectable=1;container=0;dropTarget=1;imageAspect=1;absoluteArcSize=0;portConstraintRotation=0;snapToPoint=0;fixDash=0;pointerEvents=0;enumerate=0;resizeHeight=1;resizeWidth=1;autosize=1;part=1;movable=1;rounded=0;fontFamily=Helvetica;fontSize=13;fontColor=default;" vertex="1" parent="y6w4xnMtLhlreuSDxd0q-35">&#xa;            <mxGeometry y="146" width="420" height="30" as="geometry"/>&#xa;          </mxCell>&#xa;        </object>&#xa;        <object label="%fieldModify% %fieldName%: %fieldType%    #%fieldDesc%" placeholders="1" shapeType="FIELD" fieldName="IDNumber" fieldType="String" fieldModify="-" fieldDesc="身份证号码" id="y6w4xnMtLhlreuSDxd0q-40">&#xa;          <mxCell style="text;strokeColor=none;fillColor=none;align=left;verticalAlign=top;spacingLeft=4;spacingRight=4;overflow=hidden;rotatable=0;points=[];portConstraint=none;metaEdit=1;cloneable=1;rotation=0;connectable=1;container=0;dropTarget=1;imageAspect=1;absoluteArcSize=0;portConstraintRotation=0;snapToPoint=0;fixDash=0;pointerEvents=0;enumerate=0;resizeHeight=1;resizeWidth=1;autosize=1;part=1;movable=1;rounded=0;fontFamily=Helvetica;fontSize=13;fontColor=default;" vertex="1" parent="y6w4xnMtLhlreuSDxd0q-35">&#xa;            <mxGeometry y="176" width="420" height="30" as="geometry"/>&#xa;          </mxCell>&#xa;        </object>&#xa;        <object label="%fieldModify% %fieldName%: %fieldType%    #%fieldDesc%" placeholders="1" shapeType="FIELD" fieldName="channelName" fieldType="String" fieldModify="-" fieldDesc="渠道平台名称（一级身份+二级身份，例如：分销-某某公司）" id="y6w4xnMtLhlreuSDxd0q-41">&#xa;          <mxCell style="text;strokeColor=none;fillColor=none;align=left;verticalAlign=top;spacingLeft=4;spacingRight=4;overflow=hidden;rotatable=0;points=[];portConstraint=none;metaEdit=1;cloneable=1;rotation=0;connectable=1;container=0;dropTarget=1;imageAspect=1;absoluteArcSize=0;portConstraintRotation=0;snapToPoint=0;fixDash=0;pointerEvents=0;enumerate=0;resizeHeight=1;resizeWidth=1;autosize=1;part=1;movable=1;rounded=0;fontFamily=Helvetica;fontSize=13;fontColor=default;" vertex="1" parent="y6w4xnMtLhlreuSDxd0q-35">&#xa;            <mxGeometry y="206" width="420" height="30" as="geometry"/>&#xa;          </mxCell>&#xa;        </object>&#xa;        <object label="%fieldModify% %fieldName%: %fieldType%    #%fieldDesc%" placeholders="1" shapeType="FIELD" fieldName="reporteTime" fieldType="DateTime" fieldModify="-" fieldDesc="首次报备时间" id="y6w4xnMtLhlreuSDxd0q-42">&#xa;          <mxCell style="text;strokeColor=none;fillColor=none;align=left;verticalAlign=top;spacingLeft=4;spacingRight=4;overflow=hidden;rotatable=0;points=[];portConstraint=none;metaEdit=1;cloneable=1;rotation=0;connectable=1;container=0;dropTarget=1;imageAspect=1;absoluteArcSize=0;portConstraintRotation=0;snapToPoint=0;fixDash=0;pointerEvents=0;enumerate=0;resizeHeight=1;resizeWidth=1;autosize=1;part=1;movable=1;rounded=0;fontFamily=Helvetica;fontSize=13;fontColor=default;" vertex="1" parent="y6w4xnMtLhlreuSDxd0q-35">&#xa;            <mxGeometry y="236" width="420" height="30" as="geometry"/>&#xa;          </mxCell>&#xa;        </object>&#xa;        <object label="%fieldModify% %fieldName%: %fieldType%    #%fieldDesc%" placeholders="1" shapeType="FIELD" fieldName="clientPhoneNumber" fieldType="String" fieldModify="-" fieldDesc="客户联系电话" id="y6w4xnMtLhlreuSDxd0q-43">&#xa;          <mxCell style="text;strokeColor=none;fillColor=none;align=left;verticalAlign=top;spacingLeft=4;spacingRight=4;overflow=hidden;rotatable=0;points=[];portConstraint=none;metaEdit=1;cloneable=1;rotation=0;connectable=1;container=0;dropTarget=1;imageAspect=1;absoluteArcSize=0;portConstraintRotation=0;snapToPoint=0;fixDash=0;pointerEvents=0;enumerate=0;resizeHeight=1;resizeWidth=1;autosize=1;part=1;movable=1;rounded=0;fontFamily=Helvetica;fontSize=13;fontColor=default;" vertex="1" parent="y6w4xnMtLhlreuSDxd0q-35">&#xa;            <mxGeometry y="266" width="420" height="30" as="geometry"/>&#xa;          </mxCell>&#xa;        </object>&#xa;        <object label="%fieldModify% %fieldName%: %fieldType%    #%fieldDesc%" placeholders="1" shapeType="FIELD" fieldName="clientSex" fieldType="String" fieldModify="-" fieldDesc="客户性别" id="y6w4xnMtLhlreuSDxd0q-44">&#xa;          <mxCell style="text;strokeColor=none;fillColor=none;align=left;verticalAlign=top;spacingLeft=4;spacingRight=4;overflow=hidden;rotatable=0;points=[];portConstraint=none;metaEdit=1;cloneable=1;rotation=0;connectable=1;container=0;dropTarget=1;imageAspect=1;absoluteArcSize=0;portConstraintRotation=0;snapToPoint=0;fixDash=0;pointerEvents=0;enumerate=0;resizeHeight=1;resizeWidth=1;autosize=1;part=1;movable=1;rounded=0;fontFamily=Helvetica;fontSize=13;fontColor=default;" vertex="1" parent="y6w4xnMtLhlreuSDxd0q-35">&#xa;            <mxGeometry y="296" width="420" height="30" as="geometry"/>&#xa;          </mxCell>&#xa;        </object>&#xa;        <object label="%fieldModify% %fieldName%: %fieldType%    #%fieldDesc%" placeholders="1" shapeType="FIELD" fieldName="clientVisitTime" fieldType="DateTime" fieldModify="-" fieldDesc="客户到访时间(线索首次到访时间)" id="y6w4xnMtLhlreuSDxd0q-45">&#xa;          <mxCell style="text;strokeColor=none;fillColor=none;align=left;verticalAlign=top;spacingLeft=4;spacingRight=4;overflow=hidden;rotatable=0;points=[];portConstraint=none;metaEdit=1;cloneable=1;rotation=0;connectable=1;container=0;dropTarget=1;imageAspect=1;absoluteArcSize=0;portConstraintRotation=0;snapToPoint=0;fixDash=0;pointerEvents=0;enumerate=0;resizeHeight=1;resizeWidth=1;autosize=1;part=1;movable=1;rounded=0;fontFamily=Helvetica;fontSize=13;fontColor=default;" vertex="1" parent="y6w4xnMtLhlreuSDxd0q-35">&#xa;            <mxGeometry y="326" width="420" height="30" as="geometry"/>&#xa;          </mxCell>&#xa;        </object>&#xa;        <object label="%fieldModify% %fieldName%: %fieldType%    #%fieldDesc%" placeholders="1" shapeType="FIELD" fieldName="partnerNumber" fieldType="DateTime" fieldModify="-" fieldDesc="同行人数(确认到访后反补)" id="y6w4xnMtLhlreuSDxd0q-46">&#xa;          <mxCell style="text;strokeColor=none;fillColor=none;align=left;verticalAlign=top;spacingLeft=4;spacingRight=4;overflow=hidden;rotatable=0;points=[];portConstraint=none;metaEdit=1;cloneable=1;rotation=0;connectable=1;container=0;dropTarget=1;imageAspect=1;absoluteArcSize=0;portConstraintRotation=0;snapToPoint=0;fixDash=0;pointerEvents=0;enumerate=0;resizeHeight=1;resizeWidth=1;autosize=1;part=1;movable=1;rounded=0;fontFamily=Helvetica;fontSize=13;fontColor=default;" vertex="1" parent="y6w4xnMtLhlreuSDxd0q-35">&#xa;            <mxGeometry y="356" width="420" height="30" as="geometry"/>&#xa;          </mxCell>&#xa;        </object>&#xa;        <object label="%fieldModify% %fieldName%: %fieldType%    #%fieldDesc%" placeholders="1" shapeType="FIELD" fieldName="reporterPhoneNumber" fieldType="String" fieldModify="-" fieldDesc="报备人联系电话" id="y6w4xnMtLhlreuSDxd0q-47">&#xa;          <mxCell style="text;strokeColor=none;fillColor=none;align=left;verticalAlign=top;spacingLeft=4;spacingRight=4;overflow=hidden;rotatable=0;points=[];portConstraint=none;metaEdit=1;cloneable=1;rotation=0;connectable=1;container=0;dropTarget=1;imageAspect=1;absoluteArcSize=0;portConstraintRotation=0;snapToPoint=0;fixDash=0;pointerEvents=0;enumerate=0;resizeHeight=1;resizeWidth=1;autosize=1;part=1;movable=1;rounded=0;fontFamily=Helvetica;fontSize=13;fontColor=default;" vertex="1" parent="y6w4xnMtLhlreuSDxd0q-35">&#xa;            <mxGeometry y="386" width="420" height="30" as="geometry"/>&#xa;          </mxCell>&#xa;        </object>&#xa;        <object label="%fieldModify% %fieldName%: %fieldType%    #%fieldDesc%" placeholders="1" shapeType="FIELD" fieldName="reporterName" fieldType="String" fieldModify="-" fieldDesc="报备人姓名" id="y6w4xnMtLhlreuSDxd0q-48">&#xa;          <mxCell style="text;strokeColor=none;fillColor=none;align=left;verticalAlign=top;spacingLeft=4;spacingRight=4;overflow=hidden;rotatable=0;points=[];portConstraint=none;metaEdit=1;cloneable=1;rotation=0;connectable=1;container=0;dropTarget=1;imageAspect=1;absoluteArcSize=0;portConstraintRotation=0;snapToPoint=0;fixDash=0;pointerEvents=0;enumerate=0;resizeHeight=1;resizeWidth=1;autosize=1;part=1;movable=1;rounded=0;fontFamily=Helvetica;fontSize=13;fontColor=default;" vertex="1" parent="y6w4xnMtLhlreuSDxd0q-35">&#xa;            <mxGeometry y="416" width="420" height="30" as="geometry"/>&#xa;          </mxCell>&#xa;        </object>&#xa;        <mxCell id="y6w4xnMtLhlreuSDxd0q-49" value="" style="line;strokeWidth=1;fillColor=none;align=left;verticalAlign=middle;spacingTop=-1;spacingLeft=3;spacingRight=3;rotatable=0;labelPosition=right;points=[];portConstraint=eastwest;cloneable=1;rounded=0;part=1;fontFamily=Helvetica;fontSize=13;fontColor=default;" vertex="1" parent="y6w4xnMtLhlreuSDxd0q-35">&#xa;          <mxGeometry y="446" width="420" height="8" as="geometry"/>&#xa;        </mxCell>&#xa;        <object label="《%shapeType%》&#10;%className%&#10;%classDesc%" placeholders="1" shapeType="VALUE_OBJECT" className="VisitEvidenceFindDTO" classDesc="PC端-带看单-查询" id="y6w4xnMtLhlreuSDxd0q-50">&#xa;          <mxCell style="swimlane;fontStyle=5;align=center;verticalAlign=top;childLayout=stackLayout;horizontal=1;startSize=55;horizontalStack=0;resizeParent=1;resizeParentMax=0;resizeLast=0;collapsible=1;marginBottom=0;fixDash=1;container=1;enumerate=0;treeMoving=1;swimlaneBody=1;fillOpacity=100;strokeOpacity=100;overflow=visible;rounded=1;swimlaneLine=1;sketch=0;shadow=0;arcSize=6;strokeWidth=1;fillStyle=auto;swimlaneFillColor=default;metaEdit=1;labelPadding=0;cloneable=1;separatorColor=none;swimlaneHead=1;noLabel=0;direction=east;portConstraint=none;portConstraintRotation=0;rotation=0;connectable=1;snapToPoint=0;perimeter=rectanglePerimeter;dropTarget=1;expand=1;part=1;backgroundOutline=1;movableLabel=1;autosize=1;fixedWidth=0;resizable=1;resizeWidth=0;resizeHeight=0;rotatable=1;treeFolding=0;pointerEvents=1;moveCells=0;comic=0;enumerateValue=123;allowArrows=0;glass=0;fontFamily=Helvetica;fontSize=13;" vertex="1" parent="1">&#xa;            <mxGeometry x="2320" y="640" width="310" height="163" as="geometry">&#xa;              <mxRectangle x="70" y="410" width="250" height="50" as="alternateBounds"/>&#xa;            </mxGeometry>&#xa;          </mxCell>&#xa;        </object>&#xa;        <object label="%fieldModify% %fieldName%: %fieldType%    #%fieldDesc%" placeholders="1" shapeType="FIELD" fieldName="signerRole" fieldType="String" fieldModify="-" fieldDesc="签名人角色" id="y6w4xnMtLhlreuSDxd0q-51">&#xa;          <mxCell style="text;strokeColor=none;fillColor=none;align=left;verticalAlign=top;spacingLeft=4;spacingRight=4;overflow=hidden;rotatable=0;points=[];portConstraint=none;metaEdit=1;cloneable=1;rotation=0;connectable=1;container=0;dropTarget=1;imageAspect=1;absoluteArcSize=0;portConstraintRotation=0;snapToPoint=0;fixDash=0;pointerEvents=0;enumerate=0;resizeHeight=1;resizeWidth=1;autosize=1;part=1;movable=1;rounded=0;fontFamily=Helvetica;fontSize=13;fontColor=default;" vertex="1" parent="y6w4xnMtLhlreuSDxd0q-50">&#xa;            <mxGeometry y="55" width="310" height="20" as="geometry"/>&#xa;          </mxCell>&#xa;        </object>&#xa;        <object label="%fieldModify% %fieldName%: %fieldType%    #%fieldDesc%" placeholders="1" shapeType="FIELD" fieldName="signerId" fieldType="String" fieldModify="-" fieldDesc="签名人ID" id="y6w4xnMtLhlreuSDxd0q-52">&#xa;          <mxCell style="text;strokeColor=none;fillColor=none;align=left;verticalAlign=top;spacingLeft=4;spacingRight=4;overflow=hidden;rotatable=0;points=[];portConstraint=none;metaEdit=1;cloneable=1;rotation=0;connectable=1;container=0;dropTarget=1;imageAspect=1;absoluteArcSize=0;portConstraintRotation=0;snapToPoint=0;fixDash=0;pointerEvents=0;enumerate=0;resizeHeight=1;resizeWidth=1;autosize=1;part=1;movable=1;rounded=0;fontFamily=Helvetica;fontSize=13;fontColor=default;" vertex="1" parent="y6w4xnMtLhlreuSDxd0q-50">&#xa;            <mxGeometry y="75" width="310" height="20" as="geometry"/>&#xa;          </mxCell>&#xa;        </object>&#xa;        <object label="%fieldModify% %fieldName%: %fieldType%    #%fieldDesc%" placeholders="1" shapeType="FIELD" fieldName="clientName" fieldType="String" fieldModify="-" fieldDesc="客户姓名" id="y6w4xnMtLhlreuSDxd0q-53">&#xa;          <mxCell style="text;strokeColor=none;fillColor=none;align=left;verticalAlign=top;spacingLeft=4;spacingRight=4;overflow=hidden;rotatable=0;points=[];portConstraint=none;metaEdit=1;cloneable=1;rotation=0;connectable=1;container=0;dropTarget=1;imageAspect=1;absoluteArcSize=0;portConstraintRotation=0;snapToPoint=0;fixDash=0;pointerEvents=0;enumerate=0;resizeHeight=1;resizeWidth=1;autosize=1;part=1;movable=1;rounded=0;fontFamily=Helvetica;fontSize=13;fontColor=default;" vertex="1" parent="y6w4xnMtLhlreuSDxd0q-50">&#xa;            <mxGeometry y="95" width="310" height="20" as="geometry"/>&#xa;          </mxCell>&#xa;        </object>&#xa;        <object label="%fieldModify% %fieldName%: %fieldType%    #%fieldDesc%" placeholders="1" shapeType="FIELD" fieldName="clientPhoneNumber" fieldType="String" fieldModify="-" fieldDesc="客户联系电话" id="y6w4xnMtLhlreuSDxd0q-54">&#xa;          <mxCell style="text;strokeColor=none;fillColor=none;align=left;verticalAlign=top;spacingLeft=4;spacingRight=4;overflow=hidden;rotatable=0;points=[];portConstraint=none;metaEdit=1;cloneable=1;rotation=0;connectable=1;container=0;dropTarget=1;imageAspect=1;absoluteArcSize=0;portConstraintRotation=0;snapToPoint=0;fixDash=0;pointerEvents=0;enumerate=0;resizeHeight=1;resizeWidth=1;autosize=1;part=1;movable=1;rounded=0;fontFamily=Helvetica;fontSize=13;fontColor=default;" vertex="1" parent="y6w4xnMtLhlreuSDxd0q-50">&#xa;            <mxGeometry y="115" width="310" height="20" as="geometry"/>&#xa;          </mxCell>&#xa;        </object>&#xa;        <object label="%fieldModify% %fieldName%: %fieldType%    #%fieldDesc%" placeholders="1" shapeType="FIELD" fieldName="signatureStatus" fieldType="String" fieldModify="-" fieldDesc="签名状态" id="y6w4xnMtLhlreuSDxd0q-55">&#xa;          <mxCell style="text;strokeColor=none;fillColor=none;align=left;verticalAlign=top;spacingLeft=4;spacingRight=4;overflow=hidden;rotatable=0;points=[];portConstraint=none;metaEdit=1;cloneable=1;rotation=0;connectable=1;container=0;dropTarget=1;imageAspect=1;absoluteArcSize=0;portConstraintRotation=0;snapToPoint=0;fixDash=0;pointerEvents=0;enumerate=0;resizeHeight=1;resizeWidth=1;autosize=1;part=1;movable=1;rounded=0;fontFamily=Helvetica;fontSize=13;fontColor=default;" vertex="1" parent="y6w4xnMtLhlreuSDxd0q-50">&#xa;            <mxGeometry y="135" width="310" height="20" as="geometry"/>&#xa;          </mxCell>&#xa;        </object>&#xa;        <mxCell id="y6w4xnMtLhlreuSDxd0q-56" value="" style="line;strokeWidth=1;fillColor=none;align=left;verticalAlign=middle;spacingTop=-1;spacingLeft=3;spacingRight=3;rotatable=0;labelPosition=right;points=[];portConstraint=eastwest;cloneable=1;rounded=0;part=1;fontFamily=Helvetica;fontSize=13;fontColor=default;" vertex="1" parent="y6w4xnMtLhlreuSDxd0q-50">&#xa;          <mxGeometry y="155" width="310" height="8" as="geometry"/>&#xa;        </mxCell>&#xa;        <object label="《%shapeType%》&#10;%className%&#10;%classDesc%" placeholders="1" shapeType="VALUE_OBJECT" className="VisitEvidenceFindVO" classDesc="PC端-带看单-案场查询" id="y6w4xnMtLhlreuSDxd0q-57">&#xa;          <mxCell style="swimlane;fontStyle=5;align=center;verticalAlign=top;childLayout=stackLayout;horizontal=1;startSize=55;horizontalStack=0;resizeParent=1;resizeParentMax=0;resizeLast=0;collapsible=1;marginBottom=0;fixDash=1;container=1;enumerate=0;treeMoving=1;swimlaneBody=1;fillOpacity=100;strokeOpacity=100;overflow=visible;rounded=1;swimlaneLine=1;sketch=0;shadow=0;arcSize=6;strokeWidth=1;fillStyle=auto;swimlaneFillColor=default;metaEdit=1;labelPadding=0;cloneable=1;separatorColor=none;swimlaneHead=1;noLabel=0;direction=east;portConstraint=none;portConstraintRotation=0;rotation=0;connectable=1;snapToPoint=0;perimeter=rectanglePerimeter;dropTarget=1;expand=1;part=1;backgroundOutline=1;movableLabel=1;autosize=1;fixedWidth=0;resizable=1;resizeWidth=0;resizeHeight=0;rotatable=1;treeFolding=0;pointerEvents=1;moveCells=0;comic=0;enumerateValue=123;allowArrows=0;glass=0;fontFamily=Helvetica;fontSize=13;" vertex="1" parent="1">&#xa;            <mxGeometry x="2270" y="830" width="420" height="454" as="geometry">&#xa;              <mxRectangle x="70" y="410" width="250" height="50" as="alternateBounds"/>&#xa;            </mxGeometry>&#xa;          </mxCell>&#xa;        </object>&#xa;        <object label="%fieldModify% %fieldName%: %fieldType%    #%fieldDesc%" placeholders="1" shapeType="FIELD" fieldName="id" fieldType="Long" fieldModify="-" fieldDesc="主键" id="y6w4xnMtLhlreuSDxd0q-58">&#xa;          <mxCell style="text;strokeColor=none;fillColor=none;align=left;verticalAlign=top;spacingLeft=4;spacingRight=4;overflow=hidden;rotatable=0;points=[];portConstraint=none;metaEdit=1;cloneable=1;rotation=0;connectable=1;container=0;dropTarget=1;imageAspect=1;absoluteArcSize=0;portConstraintRotation=0;snapToPoint=0;fixDash=0;pointerEvents=0;enumerate=0;resizeHeight=1;resizeWidth=1;autosize=1;part=1;movable=1;rounded=0;fontFamily=Helvetica;fontSize=13;fontColor=default;" vertex="1" parent="y6w4xnMtLhlreuSDxd0q-57">&#xa;            <mxGeometry y="55" width="420" height="30" as="geometry"/>&#xa;          </mxCell>&#xa;        </object>&#xa;        <object label="%fieldModify% %fieldName%: %fieldType%    #%fieldDesc%" placeholders="1" shapeType="FIELD" fieldName="visitEvidenceCode" fieldType="String" fieldModify="-" fieldDesc="带看单编号：区域名称（中文）+项目名称（中文）+年月日+00000001（根据带看单数量自动增加，项目单独计算，每个项目都是从00000001开始，计数跨年重置，重新计算）" id="y6w4xnMtLhlreuSDxd0q-59">&#xa;          <mxCell style="text;strokeColor=none;fillColor=none;align=left;verticalAlign=top;spacingLeft=4;spacingRight=4;overflow=hidden;rotatable=0;points=[];portConstraint=none;metaEdit=1;cloneable=1;rotation=0;connectable=1;container=0;dropTarget=1;imageAspect=1;absoluteArcSize=0;portConstraintRotation=0;snapToPoint=0;fixDash=0;pointerEvents=0;enumerate=0;resizeHeight=1;resizeWidth=1;autosize=1;part=1;movable=1;rounded=0;fontFamily=Helvetica;fontSize=13;fontColor=default;" vertex="1" parent="y6w4xnMtLhlreuSDxd0q-57">&#xa;            <mxGeometry y="85" width="420" height="31" as="geometry"/>&#xa;          </mxCell>&#xa;        </object>&#xa;        <object label="%fieldModify% %fieldName%: %fieldType%    #%fieldDesc%" placeholders="1" shapeType="FIELD" fieldName="signatureList" fieldType="List&lt;Signature&gt;" fieldModify="-" fieldDesc="签名列表" id="y6w4xnMtLhlreuSDxd0q-60">&#xa;          <mxCell style="text;strokeColor=none;fillColor=none;align=left;verticalAlign=top;spacingLeft=4;spacingRight=4;overflow=hidden;rotatable=0;points=[];portConstraint=none;metaEdit=1;cloneable=1;rotation=0;connectable=1;container=0;dropTarget=1;imageAspect=1;absoluteArcSize=0;portConstraintRotation=0;snapToPoint=0;fixDash=0;pointerEvents=0;enumerate=0;resizeHeight=1;resizeWidth=1;autosize=1;part=1;movable=1;rounded=0;fontFamily=Helvetica;fontSize=13;fontColor=default;" vertex="1" parent="y6w4xnMtLhlreuSDxd0q-57">&#xa;            <mxGeometry y="116" width="420" height="30" as="geometry"/>&#xa;          </mxCell>&#xa;        </object>&#xa;        <object label="%fieldModify% %fieldName%: %fieldType%    #%fieldDesc%" placeholders="1" shapeType="FIELD" fieldName="clientName" fieldType="String" fieldModify="-" fieldDesc="客户姓名" id="y6w4xnMtLhlreuSDxd0q-61">&#xa;          <mxCell style="text;strokeColor=none;fillColor=none;align=left;verticalAlign=top;spacingLeft=4;spacingRight=4;overflow=hidden;rotatable=0;points=[];portConstraint=none;metaEdit=1;cloneable=1;rotation=0;connectable=1;container=0;dropTarget=1;imageAspect=1;absoluteArcSize=0;portConstraintRotation=0;snapToPoint=0;fixDash=0;pointerEvents=0;enumerate=0;resizeHeight=1;resizeWidth=1;autosize=1;part=1;movable=1;rounded=0;fontFamily=Helvetica;fontSize=13;fontColor=default;" vertex="1" parent="y6w4xnMtLhlreuSDxd0q-57">&#xa;            <mxGeometry y="146" width="420" height="30" as="geometry"/>&#xa;          </mxCell>&#xa;        </object>&#xa;        <object label="%fieldModify% %fieldName%: %fieldType%    #%fieldDesc%" placeholders="1" shapeType="FIELD" fieldName="IDNumber" fieldType="String" fieldModify="-" fieldDesc="身份证号码" id="y6w4xnMtLhlreuSDxd0q-62">&#xa;          <mxCell style="text;strokeColor=none;fillColor=none;align=left;verticalAlign=top;spacingLeft=4;spacingRight=4;overflow=hidden;rotatable=0;points=[];portConstraint=none;metaEdit=1;cloneable=1;rotation=0;connectable=1;container=0;dropTarget=1;imageAspect=1;absoluteArcSize=0;portConstraintRotation=0;snapToPoint=0;fixDash=0;pointerEvents=0;enumerate=0;resizeHeight=1;resizeWidth=1;autosize=1;part=1;movable=1;rounded=0;fontFamily=Helvetica;fontSize=13;fontColor=default;" vertex="1" parent="y6w4xnMtLhlreuSDxd0q-57">&#xa;            <mxGeometry y="176" width="420" height="30" as="geometry"/>&#xa;          </mxCell>&#xa;        </object>&#xa;        <object label="%fieldModify% %fieldName%: %fieldType%    #%fieldDesc%" placeholders="1" shapeType="FIELD" fieldName="channelName" fieldType="String" fieldModify="-" fieldDesc="渠道平台名称（一级身份+二级身份，例如：分销-某某公司）" id="y6w4xnMtLhlreuSDxd0q-63">&#xa;          <mxCell style="text;strokeColor=none;fillColor=none;align=left;verticalAlign=top;spacingLeft=4;spacingRight=4;overflow=hidden;rotatable=0;points=[];portConstraint=none;metaEdit=1;cloneable=1;rotation=0;connectable=1;container=0;dropTarget=1;imageAspect=1;absoluteArcSize=0;portConstraintRotation=0;snapToPoint=0;fixDash=0;pointerEvents=0;enumerate=0;resizeHeight=1;resizeWidth=1;autosize=1;part=1;movable=1;rounded=0;fontFamily=Helvetica;fontSize=13;fontColor=default;" vertex="1" parent="y6w4xnMtLhlreuSDxd0q-57">&#xa;            <mxGeometry y="206" width="420" height="30" as="geometry"/>&#xa;          </mxCell>&#xa;        </object>&#xa;        <object label="%fieldModify% %fieldName%: %fieldType%    #%fieldDesc%" placeholders="1" shapeType="FIELD" fieldName="reporteTime" fieldType="DateTime" fieldModify="-" fieldDesc="首次报备时间" id="y6w4xnMtLhlreuSDxd0q-64">&#xa;          <mxCell style="text;strokeColor=none;fillColor=none;align=left;verticalAlign=top;spacingLeft=4;spacingRight=4;overflow=hidden;rotatable=0;points=[];portConstraint=none;metaEdit=1;cloneable=1;rotation=0;connectable=1;container=0;dropTarget=1;imageAspect=1;absoluteArcSize=0;portConstraintRotation=0;snapToPoint=0;fixDash=0;pointerEvents=0;enumerate=0;resizeHeight=1;resizeWidth=1;autosize=1;part=1;movable=1;rounded=0;fontFamily=Helvetica;fontSize=13;fontColor=default;" vertex="1" parent="y6w4xnMtLhlreuSDxd0q-57">&#xa;            <mxGeometry y="236" width="420" height="30" as="geometry"/>&#xa;          </mxCell>&#xa;        </object>&#xa;        <object label="%fieldModify% %fieldName%: %fieldType%    #%fieldDesc%" placeholders="1" shapeType="FIELD" fieldName="clientPhoneNumber" fieldType="String" fieldModify="-" fieldDesc="客户联系电话" id="y6w4xnMtLhlreuSDxd0q-65">&#xa;          <mxCell style="text;strokeColor=none;fillColor=none;align=left;verticalAlign=top;spacingLeft=4;spacingRight=4;overflow=hidden;rotatable=0;points=[];portConstraint=none;metaEdit=1;cloneable=1;rotation=0;connectable=1;container=0;dropTarget=1;imageAspect=1;absoluteArcSize=0;portConstraintRotation=0;snapToPoint=0;fixDash=0;pointerEvents=0;enumerate=0;resizeHeight=1;resizeWidth=1;autosize=1;part=1;movable=1;rounded=0;fontFamily=Helvetica;fontSize=13;fontColor=default;" vertex="1" parent="y6w4xnMtLhlreuSDxd0q-57">&#xa;            <mxGeometry y="266" width="420" height="30" as="geometry"/>&#xa;          </mxCell>&#xa;        </object>&#xa;        <object label="%fieldModify% %fieldName%: %fieldType%    #%fieldDesc%" placeholders="1" shapeType="FIELD" fieldName="clientSex" fieldType="String" fieldModify="-" fieldDesc="客户性别" id="y6w4xnMtLhlreuSDxd0q-66">&#xa;          <mxCell style="text;strokeColor=none;fillColor=none;align=left;verticalAlign=top;spacingLeft=4;spacingRight=4;overflow=hidden;rotatable=0;points=[];portConstraint=none;metaEdit=1;cloneable=1;rotation=0;connectable=1;container=0;dropTarget=1;imageAspect=1;absoluteArcSize=0;portConstraintRotation=0;snapToPoint=0;fixDash=0;pointerEvents=0;enumerate=0;resizeHeight=1;resizeWidth=1;autosize=1;part=1;movable=1;rounded=0;fontFamily=Helvetica;fontSize=13;fontColor=default;" vertex="1" parent="y6w4xnMtLhlreuSDxd0q-57">&#xa;            <mxGeometry y="296" width="420" height="30" as="geometry"/>&#xa;          </mxCell>&#xa;        </object>&#xa;        <object label="%fieldModify% %fieldName%: %fieldType%    #%fieldDesc%" placeholders="1" shapeType="FIELD" fieldName="clientVisitTime" fieldType="DateTime" fieldModify="-" fieldDesc="客户到访时间(线索首次到访时间)" id="y6w4xnMtLhlreuSDxd0q-67">&#xa;          <mxCell style="text;strokeColor=none;fillColor=none;align=left;verticalAlign=top;spacingLeft=4;spacingRight=4;overflow=hidden;rotatable=0;points=[];portConstraint=none;metaEdit=1;cloneable=1;rotation=0;connectable=1;container=0;dropTarget=1;imageAspect=1;absoluteArcSize=0;portConstraintRotation=0;snapToPoint=0;fixDash=0;pointerEvents=0;enumerate=0;resizeHeight=1;resizeWidth=1;autosize=1;part=1;movable=1;rounded=0;fontFamily=Helvetica;fontSize=13;fontColor=default;" vertex="1" parent="y6w4xnMtLhlreuSDxd0q-57">&#xa;            <mxGeometry y="326" width="420" height="30" as="geometry"/>&#xa;          </mxCell>&#xa;        </object>&#xa;        <object label="%fieldModify% %fieldName%: %fieldType%    #%fieldDesc%" placeholders="1" shapeType="FIELD" fieldName="partnerNumber" fieldType="DateTime" fieldModify="-" fieldDesc="同行人数(确认到访后反补)" id="y6w4xnMtLhlreuSDxd0q-68">&#xa;          <mxCell style="text;strokeColor=none;fillColor=none;align=left;verticalAlign=top;spacingLeft=4;spacingRight=4;overflow=hidden;rotatable=0;points=[];portConstraint=none;metaEdit=1;cloneable=1;rotation=0;connectable=1;container=0;dropTarget=1;imageAspect=1;absoluteArcSize=0;portConstraintRotation=0;snapToPoint=0;fixDash=0;pointerEvents=0;enumerate=0;resizeHeight=1;resizeWidth=1;autosize=1;part=1;movable=1;rounded=0;fontFamily=Helvetica;fontSize=13;fontColor=default;" vertex="1" parent="y6w4xnMtLhlreuSDxd0q-57">&#xa;            <mxGeometry y="356" width="420" height="30" as="geometry"/>&#xa;          </mxCell>&#xa;        </object>&#xa;        <object label="%fieldModify% %fieldName%: %fieldType%    #%fieldDesc%" placeholders="1" shapeType="FIELD" fieldName="reporterPhoneNumber" fieldType="String" fieldModify="-" fieldDesc="报备人联系电话" id="y6w4xnMtLhlreuSDxd0q-69">&#xa;          <mxCell style="text;strokeColor=none;fillColor=none;align=left;verticalAlign=top;spacingLeft=4;spacingRight=4;overflow=hidden;rotatable=0;points=[];portConstraint=none;metaEdit=1;cloneable=1;rotation=0;connectable=1;container=0;dropTarget=1;imageAspect=1;absoluteArcSize=0;portConstraintRotation=0;snapToPoint=0;fixDash=0;pointerEvents=0;enumerate=0;resizeHeight=1;resizeWidth=1;autosize=1;part=1;movable=1;rounded=0;fontFamily=Helvetica;fontSize=13;fontColor=default;" vertex="1" parent="y6w4xnMtLhlreuSDxd0q-57">&#xa;            <mxGeometry y="386" width="420" height="30" as="geometry"/>&#xa;          </mxCell>&#xa;        </object>&#xa;        <object label="%fieldModify% %fieldName%: %fieldType%    #%fieldDesc%" placeholders="1" shapeType="FIELD" fieldName="reporterName" fieldType="String" fieldModify="-" fieldDesc="报备人姓名" id="y6w4xnMtLhlreuSDxd0q-70">&#xa;          <mxCell style="text;strokeColor=none;fillColor=none;align=left;verticalAlign=top;spacingLeft=4;spacingRight=4;overflow=hidden;rotatable=0;points=[];portConstraint=none;metaEdit=1;cloneable=1;rotation=0;connectable=1;container=0;dropTarget=1;imageAspect=1;absoluteArcSize=0;portConstraintRotation=0;snapToPoint=0;fixDash=0;pointerEvents=0;enumerate=0;resizeHeight=1;resizeWidth=1;autosize=1;part=1;movable=1;rounded=0;fontFamily=Helvetica;fontSize=13;fontColor=default;" vertex="1" parent="y6w4xnMtLhlreuSDxd0q-57">&#xa;            <mxGeometry y="416" width="420" height="30" as="geometry"/>&#xa;          </mxCell>&#xa;        </object>&#xa;        <mxCell id="y6w4xnMtLhlreuSDxd0q-71" value="" style="line;strokeWidth=1;fillColor=none;align=left;verticalAlign=middle;spacingTop=-1;spacingLeft=3;spacingRight=3;rotatable=0;labelPosition=right;points=[];portConstraint=eastwest;cloneable=1;rounded=0;part=1;fontFamily=Helvetica;fontSize=13;fontColor=default;" vertex="1" parent="y6w4xnMtLhlreuSDxd0q-57">&#xa;          <mxGeometry y="446" width="420" height="8" as="geometry"/>&#xa;        </mxCell>&#xa;        <object label="《%shapeType%》&lt;br&gt;%rule%" shapeType="RULE" rule="PC端-客户中心-客户管理-渠道带看单管理，增加渠道带看单管理界面，用于分析和统计带看单数据。" placeholders="1" id="y6w4xnMtLhlreuSDxd0q-72">&#xa;          <mxCell style="rounded=0;whiteSpace=wrap;html=1;shadow=0;glass=0;labelBackgroundColor=none;labelBorderColor=none;sketch=0;fillStyle=auto;fontSize=12;strokeWidth=1;cloneable=1;metaEdit=1;imageWidth=24;arcSize=21;absoluteArcSize=1;connectable=0;allowArrows=0;rotatable=0;" vertex="1" parent="1">&#xa;            <mxGeometry x="2830" y="500" width="190" height="100" as="geometry"/>&#xa;          </mxCell>&#xa;        </object>&#xa;        <object label="《%shapeType%》&lt;br&gt;%rule%" shapeType="RULE" rule="PC端和移动端时间轴增加带看单日志记录。" placeholders="1" id="y6w4xnMtLhlreuSDxd0q-73">&#xa;          <mxCell style="rounded=0;whiteSpace=wrap;html=1;shadow=0;glass=0;labelBackgroundColor=none;labelBorderColor=none;sketch=0;fillStyle=auto;fontSize=12;strokeWidth=1;cloneable=1;metaEdit=1;imageWidth=24;arcSize=21;absoluteArcSize=1;connectable=0;allowArrows=0;rotatable=0;" vertex="1" parent="1">&#xa;            <mxGeometry x="3150" y="500" width="150" height="90" as="geometry"/>&#xa;          </mxCell>&#xa;        </object>&#xa;        <object label="《%shapeType%》&lt;br&gt;%rule%" shapeType="RULE" rule="PC端-案场管理-客户详情-渠道带看单，导出带看单，导出文件为PDF。" placeholders="1" id="y6w4xnMtLhlreuSDxd0q-74">&#xa;          <mxCell style="rounded=0;whiteSpace=wrap;html=1;shadow=0;glass=0;labelBackgroundColor=none;labelBorderColor=none;sketch=0;fillStyle=auto;fontSize=12;strokeWidth=1;cloneable=1;metaEdit=1;imageWidth=24;arcSize=21;absoluteArcSize=1;connectable=0;allowArrows=0;rotatable=0;" vertex="1" parent="1">&#xa;            <mxGeometry x="3440" y="500" width="160" height="90" as="geometry"/>&#xa;          </mxCell>&#xa;        </object>&#xa;        <object label="《%shapeType%》&lt;br&gt;%rule%" shapeType="RULE" rule="PC端-客户中心-客户管理-渠道带看单管理，勾选列表数据，点击“批量导出带看单”，跳转下载中心，进行批量导出任务，执行完成后点击“下载”进行导出的PDF压缩文件的下载。" placeholders="1" id="y6w4xnMtLhlreuSDxd0q-75">&#xa;          <mxCell style="rounded=0;whiteSpace=wrap;html=1;shadow=0;glass=0;labelBackgroundColor=none;labelBorderColor=none;sketch=0;fillStyle=auto;fontSize=12;strokeWidth=1;cloneable=1;metaEdit=1;imageWidth=24;arcSize=21;absoluteArcSize=1;connectable=0;allowArrows=0;rotatable=0;" vertex="1" parent="1">&#xa;            <mxGeometry x="3760" y="500" width="230" height="110" as="geometry"/>&#xa;          </mxCell>&#xa;        </object>&#xa;      </root>&#xa;    </mxGraphModel>&#xa;  </diagram></mxfile>